<svg width="713" height="802" viewBox="0 0 713 802" fill="none" xmlns="http://www.w3.org/2000/svg">
<path d="M312.495 321.669C370.515 297.342 565.104 234.979 625.063 209.389C685.022 183.799 682.378 106.079 628.977 93.5221C575.577 80.9649 556.051 111.07 556.051 111.07C556.051 111.07 546.455 56.192 506.171 53.8528C465.894 51.5137 430.689 92.7424 446.494 154.355C446.494 154.355 440.671 135.79 410.554 134.684C380.438 133.578 340.807 161.937 323.16 202.861C305.513 243.786 321.036 261.89 331.567 266.323C331.567 266.323 279.719 280.366 253.598 306.23C227.477 332.095 254.474 345.996 312.495 321.669Z" fill="#F3E7D9"/>
<path d="M95.5569 287.161C104.373 282.75 197.843 231.615 245.458 201.644C293.073 171.673 323.056 155.796 317.76 138.167C312.465 120.538 313.349 103.785 271.906 123.181C271.906 123.181 241.922 84.3883 189.019 116.127C136.116 147.865 171.38 213.993 171.38 213.993C171.38 213.993 149.336 209.582 127.293 225.451C105.249 241.32 103.482 249.259 107.893 255.43C112.305 261.601 118.477 259.841 118.477 259.841C118.477 259.841 92.9055 277.477 86.7336 285.408C80.5691 293.332 86.741 291.564 95.5569 287.161Z" fill="#F3E7D9"/>
<path d="M152.516 396.686C152.516 396.686 138.322 423.597 158.145 425.55C177.961 427.511 179.186 403.532 179.186 403.532" stroke="#1D2538" stroke-width="2" stroke-miterlimit="10"/>
<path d="M160.225 389.831C160.225 389.831 153.488 401.898 167.57 415.978C178.733 427.139 194.174 406.77 194.174 406.77" stroke="#3E4C6F" stroke-width="2" stroke-miterlimit="10"/>
<path d="M158.324 399.374C158.324 399.374 149.961 426.285 161.644 428.238C173.326 430.191 174.047 406.22 174.047 406.22" stroke="#992C29" stroke-width="2" stroke-miterlimit="10"/>
<path d="M117.044 588.95L103.096 475.942H221.996L241.084 597.757L117.044 588.95Z" fill="#C94039"/>
<path d="M117.044 588.95L216.344 524.671L221.996 475.942L241.084 597.757L117.044 588.95Z" fill="#992C29"/>
<path d="M279.251 448.786L221.996 475.942L240.898 597.757L298.332 534.644L279.251 448.786Z" fill="#992C29"/>
<path d="M103.831 475.942L197.776 448.051L279.251 448.786L221.996 475.942H103.831Z" fill="#EE5D4F"/>
<path d="M213.737 462.583C194.538 461.157 156.6 466.846 156.6 466.846C156.6 466.846 156.452 467.952 156.6 468.643C157.061 470.692 172.182 471.776 185.759 471.724C198.637 471.672 217.071 467.789 219.723 465.041C220.339 464.403 220.013 462.398 220.013 462.398C220.013 462.398 216.091 462.761 213.737 462.583Z" fill="#3E4C6F"/>
<path d="M213.737 460.875C194.538 459.449 176.438 460.994 161.628 464.566C146.819 468.138 167.659 470.083 185.766 470.017C203.873 469.95 232.936 462.294 213.737 460.875Z" fill="#1D2538"/>
<path d="M164.659 399.7L182.365 465.91L187.505 466.17L191.642 464.009L170.868 392.831L164.659 399.7Z" fill="#121721"/>
<path d="M180.167 407.691C180.167 407.691 177.968 417.968 182.365 426.768C186.769 435.575 189.703 435.575 208.056 432.642C226.408 429.709 235.699 425.305 243.282 421.637C248.719 419.008 242.547 399.374 238.878 398.884C227.136 393.745 180.167 407.691 180.167 407.691Z" fill="#48598B"/>
<path d="M175.896 392.928C175.896 392.928 173.698 403.205 178.095 412.005C182.499 420.812 185.433 420.812 203.785 417.879C222.137 414.946 231.429 410.542 239.012 406.874C244.448 404.245 238.276 384.611 234.607 384.121C222.873 378.982 175.896 392.928 175.896 392.928Z" fill="#1D2538"/>
<path d="M179.431 417.968C179.431 417.968 175.027 409.896 167.689 407.691C160.351 405.493 148.364 407.201 144.933 406.956C141.501 406.711 133.926 395.95 128.786 382.004C123.647 368.059 121.448 355.583 137.595 348.981C153.741 342.38 189.703 332.837 205.857 332.837C222.003 332.837 222.003 342.38 225.672 350.452C229.341 358.524 241.819 393.017 243.289 396.686C244.76 400.354 240.111 403.777 221.268 409.896C196.885 417.805 179.431 417.968 179.431 417.968Z" fill="#48598B"/>
<path d="M165.394 365.764C162.772 360.076 158.167 348.462 173.267 342.142C188.366 335.823 190.549 332.956 205.649 332.956C220.748 332.956 219.203 338.036 222.634 345.766C226.066 353.496 237.734 386.534 239.108 390.047C240.482 393.559 168.023 371.452 165.394 365.764Z" fill="#3E4C6F"/>
<path d="M193.833 395.153C197.609 393.342 197.615 385.504 193.846 377.645C190.077 369.787 183.961 364.884 180.184 366.695C176.408 368.506 176.402 376.344 180.171 384.202C183.94 392.061 190.057 396.963 193.833 395.153Z" fill="#273252"/>
<path d="M191.279 393.104C194.353 391.631 194.36 385.256 191.295 378.866C188.23 372.475 183.254 368.49 180.18 369.963C177.107 371.437 177.1 377.812 180.165 384.202C183.23 390.592 188.206 394.578 191.279 393.104Z" fill="#121721"/>
<path d="M225.669 382.654C229.187 380.967 229.194 373.67 225.686 366.355C222.177 359.041 216.482 354.478 212.965 356.164C209.447 357.851 209.44 365.148 212.948 372.463C216.456 379.777 222.152 384.34 225.669 382.654Z" fill="#273252"/>
<path d="M223.303 380.751C226.162 379.381 226.167 373.446 223.313 367.496C220.459 361.545 215.828 357.833 212.969 359.204C210.11 360.575 210.105 366.51 212.959 372.46C215.813 378.41 220.444 382.122 223.303 380.751Z" fill="#121721"/>
<path d="M180.146 426.178C183.749 424.913 185.315 420.03 183.644 415.27C181.972 410.511 177.696 407.678 174.093 408.943C170.49 410.208 168.924 415.092 170.596 419.851C172.267 424.61 176.543 427.443 180.146 426.178Z" fill="#1D2538"/>
<path d="M178.469 426.535C182.072 425.27 183.638 420.386 181.966 415.627C180.294 410.867 176.019 408.034 172.416 409.299C168.812 410.564 167.247 415.448 168.918 420.208C170.59 424.967 174.866 427.8 178.469 426.535Z" fill="#273252"/>
<path d="M181.266 354.855L225.301 271.195" stroke="#FFACFF" stroke-miterlimit="10"/>
<path d="M199.981 399.983L306.775 417.597" stroke="#FFACFF" stroke-miterlimit="10"/>
<path d="M196.677 300.913C196.677 300.913 220.896 305.317 228.606 321.825" stroke="#FFACFF" stroke-miterlimit="10"/>
<path d="M206.585 381.269L255.834 362.831" stroke="#FFACFF" stroke-miterlimit="10"/>
<path d="M278.62 350.296C278.62 350.296 291.164 404.275 264.939 429.709" stroke="#FFACFF" stroke-miterlimit="10"/>
<path d="M399.235 332.288C399.235 332.288 379.011 337.412 375.194 360.269C373.79 368.69 372.26 393.671 369.712 410.097C365.665 436.229 362.077 461.425 360.31 469.437C357.525 482.084 355.022 492.146 370.722 498.057C386.995 504.183 393.397 496.653 401.419 477.361C409.663 457.534 424.249 409.421 425.735 392.074C427.28 374.192 424.443 334.716 399.235 332.288Z" fill="#F5894E"/>
<path d="M399.391 333.721C393.234 333.677 387.047 336.951 386.757 346.65C386.089 368.764 393.308 411.909 394.095 426.233C395.417 450.226 361.037 494.693 370.73 498.072C387.143 503.797 393.404 496.668 401.426 477.376C409.67 457.548 424.257 409.436 425.742 392.089C427.279 374.192 405.548 333.758 399.391 333.721Z" fill="#CC6D3D"/>
<path d="M429.851 488.76C429.851 488.76 426.182 566.836 427.013 571.299C427.845 575.762 506.921 599.339 506.921 599.339C506.921 599.339 576.825 591.876 584.586 591.252C592.348 590.621 593.952 533.382 587.535 512.04C581.118 490.69 429.851 488.76 429.851 488.76Z" fill="#1D2538"/>
<path d="M552.471 316.679C536.533 303.995 518.463 298.79 470.989 306.461C414.194 315.639 397.609 328.879 391.423 333.84C385.221 338.815 402.37 397.198 411.743 418.406C421.071 439.496 423.188 477.071 423.188 477.071C423.188 477.071 423.864 521.018 423.3 530.129C422.735 539.234 581.266 530.419 587.728 526.424C594.175 522.443 587.312 453.204 582.529 435.263C577.568 416.691 567.029 328.263 552.471 316.679Z" fill="#F7BC4B"/>
<path d="M508.176 394.651C508.176 394.651 495.194 414.107 479.381 438.308C472.771 448.422 501.232 490.178 501.232 490.178L531.564 532.275C565.61 530.612 585.967 528.065 588.604 526.439C595.051 522.458 586.539 454.481 583.019 434.78C578.615 410.104 577.114 339.966 553.637 314.919C539.712 300.059 516.881 295.886 469.407 303.557C412.612 312.735 397.602 328.879 391.415 333.847" fill="#CE9436"/>
<path d="M434.96 317.198C434.96 317.198 418.628 321.03 421.643 327.572C424.666 334.115 432.628 347.556 457.063 349.241C481.498 350.927 505.242 315.721 498.513 307.478C491.784 299.235 434.96 317.198 434.96 317.198Z" fill="#CC6D3D"/>
<path d="M433.705 314.198C415.308 335.808 449.042 401.416 462.344 397.042C473.507 393.374 495.112 331.337 487.046 310.151C485.501 306.097 480.57 301.47 476.567 301.106" stroke="#992C29" stroke-width="3" stroke-miterlimit="10"/>
<path d="M462.98 410.326C465.662 409.989 467.418 406.393 466.901 402.295C466.385 398.197 463.792 395.149 461.11 395.487C458.428 395.825 456.672 399.421 457.189 403.519C457.705 407.616 460.298 410.664 462.98 410.326Z" fill="#29ABE2"/>
<path d="M428.595 302.146C428.595 302.146 436.037 325.738 440.864 334.345C446.405 344.221 465.255 342.803 465.255 342.803C465.255 342.803 482.887 334.315 484.083 322.315L476.856 268.685L428.595 302.146Z" fill="#CC6D3D"/>
<path d="M137.943 603.468C137.943 603.468 77.6572 619.857 80.0115 652.761C82.3659 685.665 97.8291 711.426 229.4 734.016C432.939 768.97 683.224 690.039 685.23 633.959C685.712 620.399 689.968 605.31 657.274 596.354C489.333 550.343 215.927 597.468 137.943 603.468Z" fill="#F5894E"/>
<path d="M131.444 586.121C131.444 586.121 93.9671 606.468 83.1087 632.503C71.3145 660.774 90.8997 695.765 223.896 718.711C479.388 762.791 807.732 628.545 637.956 581.814C468.181 535.082 210.275 580.032 131.444 586.121Z" fill="#A96443"/>
<path d="M86.7627 625.508L249.245 693.886L410.138 719.825L417.602 713.275L421.13 690.359L511.919 685.071L606.235 637.479L627.387 611.042L668.816 594.297C668.816 594.297 654.422 583.722 620.042 578.435C587.727 573.467 88.8943 622.352 88.8943 622.352L86.7627 625.508Z" fill="#7A462F"/>
<path d="M631.212 667.442L638.261 675.67L637.674 662.742L605.945 658.628L631.212 667.442Z" fill="#7A462F"/>
<path d="M666.468 645.12L603.591 628.664L604.764 625.144L669.41 641.593L670.583 655.694L666.468 645.12Z" fill="#7A462F"/>
<path d="M634.74 644.533L606.532 639.833L622.983 645.12L646.49 650.994L634.74 644.533Z" fill="#7A462F"/>
<path d="M587.14 662.742L562.46 656.868L530.724 650.994L558.345 661.568L587.14 662.742Z" fill="#7A462F"/>
<path d="M671.757 629.837C671.757 629.837 652.952 623.963 645.903 622.196C638.855 620.436 630.626 622.196 630.626 622.196L671.757 629.837Z" fill="#7A462F"/>
<path d="M507.218 707.988L513.1 717.976L519.562 705.047L457.271 693.299L507.218 707.988Z" fill="#7A462F"/>
<path d="M528.963 698.587L498.995 691.539C498.995 691.532 497.814 698.587 528.963 698.587Z" fill="#7A462F"/>
<path d="M301.547 727.377L161.984 691.242L132.306 668.616L169.033 685.955L301.547 727.377Z" fill="#7A462F"/>
<path d="M376.768 725.609L241.61 698.587L323.88 721.496L376.768 725.609Z" fill="#7A462F"/>
<path d="M185.78 680.66L136.42 652.464L98.5195 639.239L136.42 657.751L185.78 680.66Z" fill="#7A462F"/>
<path d="M21.873 596.681C21.873 596.681 161.948 571.64 171.224 570.712C180.501 569.784 182.357 569.784 182.357 569.784L247.292 511.349C247.292 511.349 365.101 538.246 367.886 538.246C370.671 538.246 391.081 550.306 391.081 550.306L482.917 551.234L525.585 562.365C525.585 562.365 637.831 554.019 641.544 554.019C645.258 554.019 683.292 563.294 687.926 564.222L612.787 603.178L592.377 631.931L514.452 682.019L265.838 691.294L21.873 596.681Z" fill="#BB83C3"/>
<path opacity="0.7" d="M245.25 682.948L241.314 626.317L213.105 582.252L246.602 511.453C246.602 511.453 365.101 538.246 367.886 538.246C370.671 538.246 391.081 550.306 391.081 550.306L482.917 551.234L525.585 562.365C525.585 562.365 637.831 554.019 641.544 554.019C645.258 554.019 617.466 568.692 622.107 569.62L587.728 596.94L567.452 625.144L383.23 685.071L405.088 607.745L320.464 684.121L265.838 691.279L245.25 682.948Z" fill="#856792"/>
<path d="M199.247 577.21L214.903 582.854L230.537 588.564L261.761 600.104L292.925 611.8L308.485 617.711L324.022 623.689L308.358 618.052L292.724 612.334L261.501 600.795L230.344 589.099L214.777 583.188L199.247 577.21Z" fill="#856792"/>
<path d="M389.097 558.133C386.29 563.101 383.416 568.031 380.534 572.955L371.8 587.673L362.917 602.309L358.424 609.594L353.863 616.842L358.112 609.409L362.427 602.02L371.161 587.302L380.044 572.673C383.037 567.801 386.03 562.945 389.097 558.133Z" fill="#856792"/>
<path d="M586.777 625.887L558.643 626.317L530.509 626.629L474.242 627.231L417.967 627.112L389.833 627.045L361.699 626.867L389.833 626.696L417.967 626.622L474.242 626.503L530.509 626.124L558.643 625.946L586.777 625.887Z" fill="#856792"/>
<path d="M245.978 571.098C239.65 575.316 227.7 584.264 227.7 584.264C227.7 584.264 201.186 595.797 197.338 607.708C193.58 619.359 197.97 624.253 205.85 630.78C220.169 642.64 237.593 640.078 246.431 638.177C255.552 636.216 263.833 630.78 276.311 620.51C283.79 614.347 261.791 610.834 261.263 605.465C274.008 594.111 289.976 585.824 285.119 582.349C280.262 578.873 248.912 569.138 245.978 571.098Z" stroke="#4B3355" stroke-miterlimit="10"/>
<path d="M240.945 589.606C246.313 586.261 249.676 581.964 248.457 580.008C247.237 578.052 241.897 579.178 236.529 582.522C231.161 585.867 227.798 590.164 229.017 592.121C230.236 594.077 235.577 592.951 240.945 589.606Z" stroke="#4B3355" stroke-miterlimit="10"/>
<path d="M248.912 570.853C248.912 570.853 254.542 563.026 260.654 561.066C266.774 559.105 290.377 562.9 294.292 568.774C298.206 574.648 284.748 581.613 284.748 581.613C284.748 581.613 271.446 576.571 264.197 574.277C257.045 572.532 248.912 570.853 248.912 570.853Z" stroke="#4B3355" stroke-miterlimit="10"/>
<path d="M265.304 601.426C265.304 601.426 287.325 609.498 297.597 592.619C307.876 575.739 288.788 577.945 288.788 577.945" stroke="#4B3355" stroke-miterlimit="10"/>
<path d="M274.112 594.824C274.112 594.824 280.715 613.174 293.928 605.102C307.141 597.03 288.788 579.415 288.788 579.415" stroke="#4B3355" stroke-miterlimit="10"/>
<path d="M478.884 651.328C478.884 651.328 463.473 662.333 429.709 662.333C395.946 662.333 380.133 656.741 389.343 642.521C397.416 630.045 402.556 621.238 409.894 613.901C417.232 606.564 428.974 610.233 433.378 602.161C437.783 594.089 439.253 586.017 469.34 586.017C499.435 586.017 492.825 591.891 489.156 600.691C485.487 609.49 511.177 606.565 502.368 621.238C495.045 633.461 478.884 651.328 478.884 651.328Z" stroke="#4B3355" stroke-miterlimit="10"/>
<path d="M427.689 618.884C430.474 618.817 431.061 622.07 428.855 626.548C426.396 631.538 421.398 636.224 417.907 636.491C414.342 636.758 414.298 632.288 417.521 627.082C420.403 622.426 424.859 618.951 427.689 618.884Z" stroke="#4B3355" stroke-miterlimit="10"/>
<path d="M471.969 621.572C474.754 621.505 475.341 624.758 473.135 629.236C470.677 634.226 465.678 638.912 462.188 639.179C458.623 639.447 458.578 634.976 461.801 629.771C464.691 625.122 469.139 621.639 471.969 621.572Z" stroke="#4B3355" stroke-miterlimit="10"/>
<path d="M478.884 643.991L514.118 643.256" stroke="#4B3355" stroke-width="0.5" stroke-miterlimit="10"/>
<path d="M498.707 578.68L509.959 580.878L522.682 578.918C522.682 578.918 534.669 581.851 538.338 581.851C539.994 581.851 550.08 579.891 550.08 579.891C550.08 579.891 565.35 580.537 566.962 580.136C569.896 579.4 579.439 576.467 582.373 576.467C585.307 576.467 592.652 577.202 594.851 577.202C597.049 577.202 599.255 576.467 599.255 576.467" stroke="#4B3355" stroke-miterlimit="10"/>
<path d="M591.182 586.017L583.844 584.547H578.704L566.227 586.752L553.021 587.487H540.544L536.14 588.215" stroke="#4B3355" stroke-miterlimit="10"/>
<path d="M545.676 601.426L507.39 601.144L512.21 595.841L550.147 595.582L545.676 601.426Z" fill="#4B3355"/>
<path d="M556.601 601.864L548.438 601.827L553.036 595.945L560.01 596.124L556.601 601.864Z" fill="#4B3355"/>
<path d="M502.13 673.079L463.844 672.796L470.127 667.271L508.065 667.012L502.13 673.079Z" fill="#4B3355"/>
<path d="M513.627 650.838L502.494 650.778L508.785 645.254L519.562 644.771L513.627 650.838Z" fill="#4B3355"/>
<path d="M527.821 650.838L516.688 650.778L522.971 645.254L533.755 644.771L527.821 650.838Z" fill="#4B3355"/>
<path d="M382.005 639.588L370.018 639.097L374.422 634.449L386.164 634.694L382.005 639.588Z" fill="#4B3355"/>
<path d="M144.442 626.377C141.241 624.981 138.077 623.488 134.943 621.944C133.383 621.156 131.831 620.347 130.301 619.493C128.786 618.609 127.249 617.778 125.882 616.56L125.897 616.575C125.147 615.981 124.3 615.476 123.424 615.03C122.547 614.592 121.626 614.198 120.713 613.864L120.698 613.857L120.683 613.849L116.457 611.844L112.246 609.802L112.276 609.817C108.629 608.451 104.99 607.069 101.373 605.629C99.5678 604.894 97.7556 604.166 95.988 603.334C94.2278 602.488 92.4675 601.663 90.7964 600.624L90.8336 600.639C89.5413 600.275 88.2415 599.911 86.9492 599.525C88.2712 599.792 89.5784 600.082 90.893 600.371H90.9079L90.9376 600.386C92.6384 601.285 94.4209 602.079 96.2034 602.852C97.9784 603.624 99.7832 604.344 101.603 605.042C105.22 606.461 108.867 607.827 112.513 609.171L112.528 609.178L112.543 609.186L116.776 611.183L120.988 613.218L120.958 613.203C121.916 613.567 122.829 613.976 123.736 614.443C124.627 614.919 125.518 615.431 126.298 616.122L126.313 616.137C127.531 617.28 129.076 618.171 130.554 619.07C132.054 619.953 133.584 620.793 135.129 621.609C138.189 623.265 141.315 624.825 144.442 626.377Z" fill="#1D2538"/>
<path d="M99.1221 592.374C99.5751 592.723 99.8871 593.22 100.318 593.584C100.734 593.97 101.217 594.267 101.751 594.453C102.279 594.638 102.836 594.75 103.393 594.794C103.675 594.817 103.957 594.817 104.239 594.832C104.522 594.846 104.848 594.861 105.116 595.069C105.249 595.166 105.353 595.329 105.391 595.485C105.435 595.634 105.457 595.767 105.494 595.893C105.576 596.138 105.747 596.332 105.955 596.495C106.386 596.814 106.898 597.082 107.396 597.341L108.918 598.114C109.438 598.366 109.921 598.678 110.434 598.879C112.521 599.747 114.66 600.549 116.784 601.359C118.9 602.176 121.032 602.993 123.164 603.765C123.698 603.958 124.233 604.151 124.76 604.322C125.043 604.411 125.258 604.493 125.51 604.515C125.763 604.545 126.008 604.522 126.313 604.507C126.617 604.485 127.011 604.537 127.323 604.701C127.627 604.864 127.872 605.072 128.088 605.28C128.311 605.503 128.526 605.762 128.667 606.06C128.816 606.349 128.897 606.661 128.994 606.832C129.142 607.166 129.677 607.307 130.204 607.411C130.821 607.522 131.378 607.782 131.89 608.027C132.93 608.547 133.911 609.134 134.883 609.743C136.822 610.946 138.708 612.26 140.595 613.478L146.834 616.107L146.849 616.114L146.856 616.122L149.218 617.547C149.611 617.8 149.998 618.015 150.428 618.186C150.852 618.364 151.282 618.528 151.713 618.676C151.268 618.565 150.822 618.446 150.384 618.297C149.946 618.156 149.515 617.956 149.114 617.733L146.663 616.456L146.685 616.463L143.491 615.268L141.895 614.674L141.093 614.384L140.699 614.235L140.602 614.206C140.558 614.191 140.483 614.154 140.461 614.139L140.261 614.02C138.315 612.787 136.458 611.503 134.52 610.322C133.554 609.735 132.581 609.156 131.578 608.666C131.073 608.428 130.576 608.198 130.071 608.116C129.781 608.064 129.477 607.998 129.172 607.879C128.875 607.767 128.518 607.53 128.348 607.188C128.169 606.861 128.117 606.609 127.999 606.394C127.887 606.178 127.739 605.993 127.56 605.807C127.375 605.621 127.174 605.458 126.981 605.354C126.781 605.25 126.602 605.22 126.335 605.235C126.075 605.243 125.748 605.272 125.429 605.235C125.109 605.206 124.79 605.087 124.53 604.998C123.981 604.812 123.446 604.619 122.911 604.418C118.64 602.814 114.414 601.136 110.248 599.272C109.706 599.035 109.23 598.715 108.733 598.463C108.235 598.195 107.723 597.936 107.225 597.653C106.727 597.364 106.23 597.096 105.762 596.725C105.532 596.532 105.324 596.28 105.227 595.975C105.138 595.671 105.145 595.403 104.952 595.262C104.767 595.106 104.492 595.069 104.217 595.047C103.935 595.025 103.653 595.017 103.363 594.987C102.791 594.928 102.227 594.794 101.684 594.586C101.142 594.379 100.652 594.044 100.251 593.643C99.8425 593.25 99.5603 592.737 99.1221 592.374Z" fill="#1D2538"/>
<path d="M161.45 610.604C160.656 610.471 159.868 610.263 159.103 609.995C158.338 609.72 157.581 609.401 156.883 608.963C156.199 608.503 155.546 608.094 154.818 607.775C154.105 607.456 153.333 607.196 152.59 607.055L152.642 607.062C151.959 607.062 151.298 606.995 150.614 606.758C150.443 606.691 150.273 606.616 150.109 606.505C149.953 606.401 149.834 606.297 149.701 606.186C149.441 605.963 149.203 605.718 148.98 605.503C148.542 605.072 148.022 604.738 147.473 604.426C146.93 604.121 146.336 603.809 145.809 603.661C145.735 603.646 145.712 603.646 145.653 603.639H145.408L144.903 603.616C144.569 603.594 144.234 603.557 143.9 603.498C143.239 603.386 142.578 603.186 141.969 602.933C140.751 602.443 139.57 601.908 138.389 601.359L138.315 601.322L138.27 601.262L136.666 599.027L136.77 599.109L125.83 594.401L120.371 592.025C118.552 591.23 116.71 590.487 114.972 589.515C116.739 590.428 118.604 591.104 120.438 591.869L125.956 594.111L136.971 598.641L137.03 598.663L137.075 598.723L138.775 600.884L138.657 600.787C139.838 601.314 141.026 601.834 142.222 602.295C142.816 602.525 143.403 602.696 144.026 602.792C144.331 602.844 144.643 602.874 144.955 602.889L145.423 602.904H145.66C145.764 602.904 145.898 602.926 145.987 602.948C146.708 603.156 147.257 603.483 147.844 603.817C148.408 604.151 148.988 604.537 149.47 605.02C149.716 605.258 149.924 605.488 150.154 605.688C150.265 605.785 150.391 605.889 150.503 605.97C150.599 606.045 150.733 606.104 150.859 606.156C151.402 606.364 152.048 606.431 152.657 606.461H152.701H152.709C153.541 606.661 154.298 606.958 155.041 607.329C155.776 607.686 156.474 608.176 157.106 608.644C158.39 609.542 159.898 610.159 161.45 610.604Z" fill="#1D2538"/>
<path d="M192.644 586.752L205.849 592.619" stroke="#4B3355" stroke-width="0.5" stroke-miterlimit="10"/>
<path d="M234.474 555.927L257.23 565.469" stroke="#4B3355" stroke-width="0.5" stroke-miterlimit="10"/>
<path d="M252.825 644.726L285.853 621.973" stroke="#4B3355" stroke-width="0.5" stroke-miterlimit="10"/>
<path d="M267.992 648.885L259.919 644.971L264.62 641.867L272.396 645.216L267.992 648.885Z" fill="#4B3355"/>
<path d="M154.477 637.39L146.403 633.476L151.105 630.372L158.881 633.721L154.477 637.39Z" fill="#4B3355"/>
<path d="M181.385 649.62L156.92 638.607L161.621 635.511L185.789 645.952L181.385 649.62Z" fill="#4B3355"/>
<path d="M193.127 595.314L185.054 591.401L189.755 588.297L197.531 591.646L193.127 595.314Z" fill="#4B3355"/>
<path d="M360.964 569.138L332.637 559.336L336.38 555.125L364.276 564.46L360.964 569.138Z" fill="#4B3355"/>
<path d="M243.527 557.643L235.454 553.729L240.155 549.89L247.932 553.239L243.527 557.643Z" fill="#4B3355"/>
<path d="M279.006 645.216L266.528 639.588L271.23 636.491L283.41 641.548L279.006 645.216Z" fill="#4B3355"/>
<path d="M424.955 588.653H410.183L231.524 707.104V709.941L420.841 723.552L438.339 587.725L424.955 588.653ZM399.102 686.965L317.389 683.274L411.817 598.715L423.262 596.844L399.102 686.965Z" fill="#273252"/>
<path d="M428.157 582.349H412.501L231.458 707.104L421.309 719.825L442.35 581.368L428.157 582.349ZM400.751 686.557L314.144 682.643L412.493 596.049L424.622 594.067L400.751 686.557Z" fill="#29ABE2"/>
<path d="M295.918 663.068H319.774" stroke="#1689CB" stroke-miterlimit="10"/>
<path d="M311.329 652.063H331.271" stroke="#1689CB" stroke-miterlimit="10"/>
<path d="M324.542 643.256H340.324" stroke="#1689CB" stroke-miterlimit="10"/>
<path d="M337.755 634.085H353.537" stroke="#1689CB" stroke-miterlimit="10"/>
<path d="M351.331 624.543H367.114" stroke="#1689CB" stroke-miterlimit="10"/>
<path d="M364.908 615.372H378.492" stroke="#1689CB" stroke-miterlimit="10"/>
<path d="M378.492 606.201H388.764" stroke="#1689CB" stroke-miterlimit="10"/>
<path d="M286.01 698.052L271.089 709.792" stroke="#1689CB" stroke-miterlimit="10"/>
<path d="M306.07 698.787L291.149 710.527" stroke="#1689CB" stroke-miterlimit="10"/>
<path d="M323.932 700.012L309.004 711.753" stroke="#1689CB" stroke-miterlimit="10"/>
<path d="M341.795 700.985L329.8 712.726" stroke="#1689CB" stroke-miterlimit="10"/>
<path d="M360.14 702.456L348.888 714.196" stroke="#1689CB" stroke-miterlimit="10"/>
<path d="M380.936 703.926L370.419 715.666" stroke="#1689CB" stroke-miterlimit="10"/>
<path d="M352.995 574.329C352.995 574.329 346.979 584.109 338.356 589.841C325.195 598.589 302.951 591.601 316.713 563.368C324.631 547.127 346.407 502.201 351.918 488.359C357.191 475.118 362.152 471.821 373.018 474.457C383.936 477.101 395.864 486.636 393.569 502.245C391.185 518.486 352.995 574.329 352.995 574.329Z" fill="#F5894E"/>
<path d="M352.994 574.328C352.994 574.328 346.978 584.108 338.355 589.841C325.195 598.589 349.83 561.281 353.009 548.011C360.206 517.988 369.913 477.079 376.961 478.252C384.01 479.425 395.856 486.628 393.561 502.245C391.184 518.486 352.994 574.328 352.994 574.328Z" fill="#CC6D3D"/>
<path d="M333.699 578.138C337.279 578.138 343.488 592.418 339.187 606.045C334.887 619.679 325.158 618.104 317.523 619.189C309.88 620.273 299.972 617.562 299.972 617.562C299.972 617.562 291.691 615.676 285.245 611.777C280.788 609.082 282.786 605.302 281.917 600.082C281.375 596.829 282.348 590.68 283.871 587.963C288.037 580.559 330.112 578.138 333.699 578.138Z" fill="#F5894E"/>
<path d="M295.598 604.589C295.598 604.589 297.93 595.47 299.593 593.629C301.257 591.787 317.931 594.898 320.033 595.129C322.135 595.359 321.466 610.196 319.817 615.149C318.161 620.102 298.301 611.807 295.598 604.589Z" fill="#CC6D3D"/>
<path d="M287.947 619.129C287.947 619.129 287.509 624.364 290.131 626.436C292.753 628.508 298.457 630.751 298.457 630.751C298.457 630.751 305.928 631.063 306.099 628.983C306.263 627.038 304.889 625.129 302.816 624.498C298.687 623.236 287.947 619.129 287.947 619.129Z" fill="#F5894E"/>
<path d="M287.851 616.151C287.851 616.151 287.413 621.387 290.034 623.458C292.656 625.53 298.36 627.773 298.36 627.773C298.36 627.773 305.832 628.085 306.003 626.006C306.166 624.06 304.792 622.152 302.72 621.52C298.59 620.258 287.851 616.151 287.851 616.151Z" fill="#CC6D3D"/>
<path d="M286.269 612.631C286.269 612.631 284.249 617.481 286.975 620.236C289.701 622.983 296.259 626.83 296.259 626.83C296.259 626.83 305.587 629.362 306.382 627.439C307.132 625.634 305.936 623.406 303.507 622.189C298.65 619.745 286.269 612.631 286.269 612.631Z" fill="#F5894E"/>
<path d="M286.968 611.332C286.968 611.332 285.14 612.802 287.866 615.557C290.592 618.305 293.466 621.78 295.999 623.77C298.532 625.768 301.866 628.033 302.668 626.11C303.419 624.305 304.117 623.095 301.688 621.877C296.831 619.441 286.968 611.332 286.968 611.332Z" fill="#CC6D3D"/>
<path d="M311.276 516.466L302.728 634.36C302.728 634.36 310.103 638.169 314.789 634.627L324.407 517.929C324.407 517.929 319.067 512.916 311.276 516.466Z" fill="#3E4C6F"/>
<path d="M314.789 634.627L324.407 517.929C324.407 517.929 321.748 515.434 317.448 515.211C316.631 515.166 308.743 632.778 308.743 632.778C308.743 632.778 311.246 636.157 314.789 634.627Z" fill="#273252"/>
<path d="M314.789 634.627L308.959 648.543L302.728 634.36L305.728 634.857L308.758 632.711L311.633 634.686L314.789 634.627Z" fill="#F5894E"/>
<path d="M307.451 645.395H310.288L309.182 649.026L308.914 649.011L307.451 645.395Z" fill="#1D2538"/>
<path d="M285.036 597.824C280.365 594.75 279.689 600.846 280.291 605.079C280.595 607.218 285.749 614.636 292.107 619.107C294.603 620.867 296.088 622.597 299.497 625.144C303.634 628.241 306.426 619.775 302.512 614.852C296.459 607.233 289.708 600.898 285.036 597.824Z" fill="#F5894E"/>
<path d="M295.293 588.453C292.679 587.294 289.203 583.433 285.274 592.151C281.345 600.869 288.379 601.151 292.025 604.738C297.024 609.646 302.215 620.05 306.196 616.263C310.17 612.475 308.447 604.901 306.144 601.255C302.178 594.958 296.95 589.188 295.293 588.453Z" fill="#F5894E"/>
<path d="M284.813 597.965C284.813 597.965 289.5 603.015 294.469 607.248C297.068 609.832 303.389 617.176 303.389 617.176C303.389 617.176 295.1 609.683 293.785 608.005C291.268 605.636 288.037 602.369 284.813 597.965Z" fill="#CC6D3D"/>
<path d="M337.725 608.406C337.725 608.406 330.201 616.248 324.653 616.679C320.62 616.99 324.371 621.275 316.595 624.008C308.818 626.741 307.081 622.359 307.452 619.753C307.823 617.146 312.673 610.693 319.662 602.213C325.908 594.624 346.697 597.275 337.725 608.406Z" fill="#CC6D3D"/>
<path d="M338.415 608.391C338.415 608.391 330.891 616.233 325.343 616.664C321.311 616.976 325.061 621.26 317.285 623.993C309.509 626.726 307.771 622.345 308.142 619.738C308.514 617.132 315.087 608.317 321.207 600.624C327.326 592.923 347.387 597.26 338.415 608.391Z" fill="#F5894E"/>
<path d="M534.216 473.9C512.395 468.947 509.246 452.803 512.901 428.112C516.659 402.76 513.45 388.673 511.712 370.784C509.937 352.546 500.928 311.785 526.344 306.461C551.781 301.136 564.392 337.375 564.578 365.66C564.756 393.129 564.794 393.158 564.103 419.996C563.442 446.083 555.829 478.801 534.216 473.9Z" fill="#CC6D3D"/>
<path d="M511.482 443.365C513.279 420.634 513.458 388.673 511.712 370.784C509.937 352.546 500.928 311.785 526.344 306.461C546.382 302.265 543.158 310.122 543.062 333.706C543.032 340.055 552.368 361.784 552.465 367.784C552.888 395.252 545.112 396.923 544.703 423.701C544.317 449.736 509.38 470.031 511.482 443.365Z" fill="#F5894E"/>
<path d="M469.63 578.472C454.761 578.695 449.539 568.729 455.154 551.137C461.185 532.246 481.03 495.48 496.441 473.707C509.045 455.9 527.754 430.674 545.163 442.474C561.792 453.746 557.158 474.881 537.32 502.668C519.228 528.028 484.41 578.242 469.63 578.472Z" fill="#CC6D3D"/>
<path d="M463.859 556.232C460.338 557.68 449.547 568.722 455.162 551.137C461.193 532.246 481.038 495.48 496.449 473.707C509.053 455.9 522.986 431.186 540.722 443.001C557.67 454.288 529.819 481.49 511.348 508.81C494.481 533.753 467.394 554.776 463.859 556.232Z" fill="#F5894E"/>
<path d="M462.849 555.155C454.657 551.056 440.671 564.318 431.038 566.041C422.958 567.489 416.244 571.819 413.288 575.086C410.332 578.353 406.314 584.799 402.028 586.307C398.018 587.717 394.46 596.339 402.244 597.98C410.027 599.614 413.793 596.346 420.381 590.621C426.968 584.896 430.251 586.455 430.251 586.455C430.251 586.455 432.331 592.76 432.457 597.2C432.591 601.641 434.061 606.928 433.177 624.847C432.858 631.263 439.854 632.206 442.818 628.931C445.774 625.664 447.43 616.916 447.43 616.916C447.43 616.916 448.113 623.184 448.314 625.144C448.507 627.105 447.972 633.469 454.434 633.565C461.586 633.758 462.76 613.003 462.76 613.003L464.133 618.097C464.133 618.097 466.131 627.788 468.248 629.065C470.365 630.342 471.174 630.06 472.853 629.652C476.21 628.835 476.002 618.312 476.002 618.312C475.549 625.768 483.206 630.387 485.546 609.32C485.85 606.602 484.758 599.51 484.224 597.876C483.689 596.242 485.33 576.616 482.53 569.257C479.73 561.898 471.041 559.247 462.849 555.155Z" fill="#F5894E"/>
<path d="M485.538 609.312C486.749 606.862 484.751 599.502 484.216 597.869C483.682 596.235 485.323 576.608 482.523 569.249C479.723 561.89 477.042 564.422 468.85 560.331C460.658 556.232 469.919 586.529 469.919 586.529L485.538 609.312Z" fill="#CC6D3D"/>
<path d="M446.724 619.939C446.724 619.939 448.7 610.678 448.789 603.772C448.871 596.874 446.694 595.76 446.694 595.76C446.694 595.76 446.895 612.386 446.724 619.939Z" fill="#CC6D3D"/>
<path d="M460.94 626.481C460.94 626.481 461.698 607.634 461.386 603.111C461.074 598.582 461.386 596.94 461.386 596.94C461.386 596.94 465.055 605.896 460.94 626.481Z" fill="#CC6D3D"/>
<path d="M476.232 617.577C476.232 617.577 479.901 605.718 476.507 600.542L475.987 618.305" fill="#CC6D3D"/>
<path d="M480.592 260.851C472.006 300.52 463.146 286.715 463.146 286.715C411.253 301.686 382.272 287.963 379.16 250.662C374.645 212.218 381.782 200.671 419.378 193.141C471.731 182.648 488.242 225.518 480.592 260.851Z" fill="#3E4C6F"/>
<path d="M489.006 248.717C488.227 277.507 475.296 280.641 475.296 280.641C465.076 276.601 410.064 247.105 400.906 225.072C393.004 206.069 395.009 190.913 431.298 187.623C450.17 185.916 468.233 191.908 477.257 200.931C484.892 208.572 488.063 234.147 489.006 248.717Z" fill="#1D2538"/>
<path d="M413.837 223.847C413.837 223.847 388.236 231.941 384.403 237.652C380.571 243.362 385.644 291.72 397.156 307.129C408.504 322.322 462.588 309.914 473.291 295.745C482.062 284.138 477.769 273.326 477.301 256.581C476.811 238.944 464.831 240.912 462.403 234.444C458.229 223.35 413.837 223.847 413.837 223.847Z" fill="#CC6D3D"/>
<path d="M387.04 245.167C383.141 252.073 383.98 285.163 396.993 304.827C405.571 317.711 471.182 309.089 466.673 286.715C464.319 275.019 460.479 253.12 444.734 240.607C425.461 225.295 389.172 241.395 387.04 245.167Z" fill="#F5894E"/>
<path d="M482.902 247.773C483.971 257.078 480.785 265.432 475.786 266.479C470.758 267.526 465.775 260.806 464.668 251.442C463.562 242.041 466.777 233.605 471.843 232.625C476.886 231.637 481.832 238.439 482.902 247.773Z" fill="#CC6D3D"/>
<path d="M453.743 216.198C453.743 216.198 455.11 242.018 459.425 249.028L468.152 259.039L464.698 222.637L453.743 216.198Z" fill="#1D2538"/>
<path d="M444.756 210.347C444.756 210.347 437.715 221.916 407.554 228.518C392.581 231.8 380.935 239.813 373.352 239.924C354.725 240.199 378.009 201.302 408.557 193.579C439.438 185.767 444.756 210.347 444.756 210.347Z" fill="#1D2538"/>
<path d="M408.653 193.171C384.367 200.351 363.229 227.768 378.232 227.53C382.488 227.464 389.239 227.152 397.312 226.342C410.785 221.352 423.805 211.424 423.805 211.424C424.235 218.092 417.039 222.31 408.839 224.939C416.036 223.907 423.76 222.496 431.477 220.557C444.155 217.372 445.633 217.736 445.655 213.458C445.707 204.755 434.893 185.411 408.653 193.171Z" fill="#3E4C6F"/>
<path d="M398.916 269.665C400.298 273.17 399.198 275.301 397.394 275.94C395.589 276.579 393.754 275.48 392.365 271.967C390.976 268.455 391.318 265.083 393.13 264.452C394.943 263.821 397.535 266.16 398.916 269.665Z" fill="#34283A"/>
<path d="M428.676 261.801C430.154 265.239 429.152 267.4 427.414 268.091C425.668 268.789 423.834 267.757 422.348 264.311C420.863 260.858 421.078 257.501 422.831 256.811C424.576 256.12 427.191 258.355 428.676 261.801Z" fill="#34283A"/>
<path d="M425.29 249.6C425.29 249.6 421.323 247.744 417.959 249.979" stroke="#34283A" stroke-miterlimit="10" stroke-linecap="round" stroke-linejoin="round"/>
<path d="M394.148 256.172C390.264 256.833 387.82 259.781 387.82 259.781" stroke="#34283A" stroke-miterlimit="10" stroke-linecap="round" stroke-linejoin="round"/>
</svg>
