<svg width="657" height="739" viewBox="0 0 657 739" fill="none" xmlns="http://www.w3.org/2000/svg">
<path d="M443.133 148.142C492.75 128.641 542.367 87.9273 552.633 83.8218C562.898 79.7162 519.783 53.7144 491.723 59.8727C463.664 66.031 467.086 102.981 467.086 111.192C467.086 111.192 460.242 100.244 445.186 106.402C430.13 112.561 426.023 135.826 426.023 146.774C426.023 157.722 435.269 151.235 443.133 148.142Z" fill="#F3E7D9"/>
<path d="M78.7101 367.577C78.7101 367.577 174.153 321.451 217.898 296.004C261.644 270.556 268.802 241.927 271.984 226.818C275.167 211.71 272.778 198.189 234.604 217.273C234.604 217.273 243.35 201.371 229.834 184.668C216.311 167.965 184.494 184.668 169.383 205.346C154.272 226.025 153.478 230 153.478 230C153.478 230 142.343 211.71 125.638 217.273C108.932 222.836 104.162 267.374 116.891 280.895C116.891 280.895 102.574 277.713 83.4871 296.797C64.3999 315.881 51.6705 331.79 57.2413 338.948C62.8121 346.105 77.9231 346.105 95.4226 334.972C95.4226 334.972 58.8359 368.371 58.8359 373.147C58.8291 377.916 78.7101 367.577 78.7101 367.577Z" fill="#F3E7D9"/>
<path d="M475.887 425.26C483.251 416.495 496.555 400.62 496.555 400.62C496.555 400.62 516.635 419.971 523.376 426.43C530.541 433.294 544.612 443.667 538.097 444.447C531.54 445.227 523.971 443.872 521.932 443.284C521.932 443.284 521.049 463.38 494.016 458.584C467.982 453.958 467.873 434.799 475.887 425.26Z" fill="#1D2538"/>
<path d="M522.541 439.11C522.541 439.11 571.296 485.167 569.811 489.526C568.278 494.028 533.361 502.26 511.194 476.333C492.627 454.622 491.217 430.502 522.541 439.11Z" fill="#1D2538"/>
<path d="M553.666 492.325C556.294 493.823 609.976 548.482 609.538 556.789C609.073 565.506 581.869 577.522 557.457 560.224C535.229 544.479 518.633 472.372 553.666 492.325Z" fill="#1D2538"/>
<path d="M192.658 426.075L124.72 478.345C124.72 478.345 130.448 482.882 146.264 479.296L234.268 499.29L192.658 426.075Z" fill="#1D2538"/>
<path d="M150.521 471.229L97.6328 516.472C97.6328 516.472 121.121 535.508 144.129 515.131C150.706 509.308 230.573 515.391 230.573 515.391L195.122 467.547C195.122 467.547 161.485 468.807 150.521 471.229Z" fill="#1D2538"/>
<path d="M115.112 518.805C112.716 519.811 91.7677 534.619 68.1772 554.708C68.1772 554.708 95.9287 575.962 114.824 567.915C133.734 559.861 149.693 504.251 115.112 518.805Z" fill="#1D2538"/>
<path d="M276.644 370.451L232.632 421.613C232.632 421.613 237.97 425.486 249.707 422.277L322.963 433.314L276.644 370.451Z" fill="#1D2538"/>
<path d="M257.29 413.074L219.027 449.148C219.027 449.148 272.285 526.23 286.52 508.48C290.592 503.41 323.079 447.232 323.079 447.232L286.342 406.224C286.328 406.217 265.427 410.905 257.29 413.074Z" fill="#1D2538"/>
<path d="M233.173 451.03C231.483 451.919 217.823 464.838 203.074 482.348C203.074 482.348 228.814 500.474 242.125 493.392C255.443 486.31 257.564 438.22 233.173 451.03Z" fill="#1D2538"/>
<path d="M292.228 278.494C292.228 278.494 278.541 201.856 346.294 185.434C414.047 169.012 436.275 221.31 440.053 232.648C447.581 255.229 447.581 268.914 447.581 268.914L292.228 278.494Z" fill="#C94039"/>
<path d="M294.651 270.419C294.651 270.419 315.367 240.503 365.046 228.46C414.725 216.418 423.58 227.735 425.695 230.082C430.568 235.495 430.568 254.716 430.568 254.716C430.568 254.716 394.713 247.216 358.277 251.198C311.165 256.344 294.651 270.419 294.651 270.419Z" fill="#EE5D4F"/>
<path d="M447.753 269.352C448.43 279.609 426.003 287.882 366.825 291.262C307.647 294.649 292.228 283.968 292.228 278.747C291.551 268.49 326.564 257.993 359.297 254.551C398.307 250.439 447.075 259.095 447.753 269.352Z" fill="#1D2538"/>
<path d="M437.049 261.305L436.57 261.127C436.576 261.018 438.123 250.596 429.548 224.198C420.815 197.327 390.833 184.805 390.539 184.675L391.757 185.003L392.468 185.208C392.763 185.338 421.335 198.367 429.931 224.218C438.459 249.864 437.056 261.195 437.049 261.305Z" fill="#1D2538"/>
<path d="M345.917 240.285C360.772 240.285 372.813 228.245 372.813 213.393C372.813 198.541 360.772 186.502 345.917 186.502C331.063 186.502 319.021 198.541 319.021 213.393C319.021 228.245 331.063 240.285 345.917 240.285Z" fill="#EE5D4F"/>
<path d="M354.849 238.122C370.912 238.122 383.935 225.102 383.935 209.041C383.935 192.98 370.912 179.96 354.849 179.96C338.785 179.96 325.763 192.98 325.763 209.041C325.763 225.102 338.785 238.122 354.849 238.122Z" fill="#34283A"/>
<path d="M351.427 234.701C367.49 234.701 380.513 221.681 380.513 205.62C380.513 189.559 367.49 176.539 351.427 176.539C335.363 176.539 322.341 189.559 322.341 205.62C322.341 221.681 335.363 234.701 351.427 234.701Z" fill="#1689CB"/>
<path d="M349.716 228.543C363.323 228.543 374.353 217.514 374.353 203.909C374.353 190.305 363.323 179.276 349.716 179.276C336.109 179.276 325.078 190.305 325.078 203.909C325.078 217.514 336.109 228.543 349.716 228.543Z" fill="#29ABE2"/>
<path d="M349.031 225.121C361.126 225.121 370.931 215.318 370.931 203.225C370.931 191.132 361.126 181.329 349.031 181.329C336.936 181.329 327.131 191.132 327.131 203.225C327.131 215.318 336.936 225.121 349.031 225.121Z" fill="#665070"/>
<path d="M351.324 224.15C361.718 224.15 370.144 215.725 370.144 205.333C370.144 194.94 361.718 186.515 351.324 186.515C340.93 186.515 332.503 194.94 332.503 205.333C332.503 215.725 340.93 224.15 351.324 224.15Z" fill="#FEED7F"/>
<path d="M366.011 214.132C358.968 225.717 345.206 220.872 345.206 220.872L366.668 196.711C366.668 196.711 373.053 202.548 366.011 214.132Z" fill="#F7BC4B"/>
<path d="M361.254 168.362L348.258 35.1846" stroke="#F7BC4B" stroke-miterlimit="10"/>
<path d="M299.524 184.606L205.306 66.0447" stroke="#F7BC4B" stroke-miterlimit="10"/>
<path d="M336.884 166.74L301.146 90.4044" stroke="#F7BC4B" stroke-miterlimit="10"/>
<path d="M268.658 165.119C268.658 165.119 286.527 114.771 348.258 118.014" stroke="#F7BC4B" stroke-miterlimit="10"/>
<path d="M163.97 154.109L171.279 184.969L165.599 179.283L159.912 153.295L163.97 154.109Z" fill="#3E4C6F"/>
<path d="M174.803 156.634L182.113 187.494L176.425 181.808L170.738 155.826L174.803 156.634Z" fill="#3E4C6F"/>
<path d="M173.627 155.375L167.132 178.113L172.005 185.421L179.314 164.304L177.692 191.107L189.874 188.671L183.379 156.182L173.627 155.375Z" fill="#1D2538"/>
<path d="M169.404 283.277C160.267 276.913 157.448 208.939 158.009 189.622C158.549 171.188 158.337 178.414 158.337 178.414C158.337 178.414 157.393 174.438 165.592 174.438C173.79 174.438 173.784 174.671 174.817 177.244C175.857 179.83 176.542 184.107 177.602 185.776C178.67 187.46 180.545 188.062 182.249 188.021C183.953 187.98 181.442 185.058 186.533 185.058C191.625 185.058 193.487 184.1 194.917 190.115C196.375 196.211 207.037 248.29 207.188 253.641C207.345 259.061 198.715 260.675 191.694 262.201C187.108 263.2 179.566 273.539 178.485 276.516C177.418 279.486 173.291 285.986 169.404 283.277Z" fill="#1D2538"/>
<path d="M187.437 256.885C187.437 256.885 188.792 276.913 200.974 287.471C213.156 298.029 223.853 301.82 223.853 301.82" stroke="#4B3355" stroke-width="3" stroke-miterlimit="10"/>
<path d="M185 256.885C185 256.885 185.815 278.808 197.997 289.366C210.179 299.925 221.416 301.82 221.416 301.82" stroke="#665070" stroke-width="3" stroke-miterlimit="10"/>
<path d="M197.333 245.882C197.333 245.882 200.645 265.609 212.882 276.105C225.119 286.595 236.979 293.157 236.979 293.157" stroke="#665070" stroke-width="3" stroke-miterlimit="10"/>
<path d="M193.815 246.149C193.815 246.149 197.128 265.876 209.364 276.372C221.601 286.862 233.461 293.424 233.461 293.424" stroke="#4B3355" stroke-width="3" stroke-miterlimit="10"/>
<path d="M187.861 249.672C187.861 249.672 191.174 269.4 203.41 279.896C215.647 290.386 227.507 296.948 227.507 296.948" stroke="#4B3355" stroke-width="3" stroke-miterlimit="10"/>
<path d="M179.902 167.288C179.902 167.288 191.783 172.851 194.931 171.003C198.079 169.156 201.241 165.892 203.54 161.157C205.84 156.422 208.036 153.445 206.052 151.502C204.067 149.565 201.918 147.581 201.918 147.581C201.918 147.581 203.992 149.189 205.846 146.828C207.701 144.468 213.614 133.39 212.601 130.461C211.588 127.532 209.289 123.379 208.386 122.079C207.482 120.779 206.722 121.648 206.722 121.648C206.722 121.648 206.757 118.103 205.107 116.249C203.458 114.394 200.378 113.238 200.378 113.238C200.378 113.238 200.488 110.775 198.585 109.215C196.683 107.655 195.868 107.709 192.31 106.69C188.751 105.67 186.458 105.609 186.458 105.609C186.458 105.609 183.727 103.474 182.229 103.084C180.73 102.694 173.462 101.243 170.232 103.426C166.995 105.602 161.123 113.142 158.761 120.163C156.4 127.183 153.547 145.638 156.558 153.178C159.569 160.726 172.278 165.83 179.902 167.288Z" fill="#992C29"/>
<path d="M189.812 157.092C189.812 157.092 199.516 166.2 201.501 162.375C203.157 159.172 205.203 155.279 205.203 155.279C205.203 155.279 205.826 153.555 205.484 152.234C205.142 150.913 203.232 149.695 203.232 149.695C204.752 147.766 210.425 139.822 209.59 137.42C208.762 135.018 206.88 131.617 206.141 130.557C205.402 129.496 204.779 130.201 204.779 130.201C204.779 130.201 204.806 127.3 203.458 125.781C202.11 124.262 199.585 123.317 199.585 123.317C199.585 123.317 199.674 121.306 198.113 120.026C196.553 118.746 195.889 118.794 192.973 117.959C190.058 117.125 188.183 117.077 188.183 117.077C188.183 117.077 185.945 115.332 184.72 115.01C183.495 114.689 177.541 113.505 174.892 115.291C172.244 117.077 167.433 123.249 165.496 129.003C163.559 134.758 161.424 142.134 166.078 146.883C169.671 150.558 179.005 149.073 189.812 157.092Z" fill="#C94039"/>
<path d="M183.981 104.035C183.981 104.035 188.327 107.832 188.395 110.118C188.463 112.403 184.809 124.912 183.618 128.47C182.427 132.028 181.982 132.705 179.656 133.437C177.329 134.17 173.428 133.28 173.428 133.28C173.428 133.28 174.728 134.416 177.89 134.573C181.052 134.731 182.852 132.931 183.639 132.473C184.426 132.014 185.404 128.264 186.342 124.645C187.286 121.025 189.907 111.979 190.298 110.481C190.688 108.982 188.936 105.992 183.981 104.035Z" fill="#121721"/>
<path d="M200.235 113.115C200.235 113.115 199.893 118.178 197.018 128.182C196.081 131.446 195.287 136.352 190.503 135.463C187.464 134.519 182.058 132.733 182.058 132.733L181.812 133.335C181.812 133.335 185.863 135.189 188.573 136.031C191.29 136.872 193.631 137.085 195.088 135.593C196.546 134.101 199.243 124.946 200.036 120.354C200.83 115.756 202.055 114.655 200.235 113.115Z" fill="#121721"/>
<path d="M206.729 121.641C206.729 121.641 203.691 133.294 202.65 136.756C201.617 140.218 199.352 141.053 195.766 143.051L196.888 143.168C196.888 143.168 202.438 140.793 203.287 137.55C204.136 134.306 207.523 121.394 207.523 121.394C207.523 121.394 207.379 121.333 207.113 121.394C206.853 121.456 206.729 121.641 206.729 121.641Z" fill="#121721"/>
<path d="M203.684 149.689C203.684 149.689 196.799 143.366 193.507 141.17C190.216 138.973 187.095 141.231 186.164 143.257C185.24 145.282 182.503 147.567 184.638 149.593C186.766 151.618 191.297 153.589 193.596 155.471C193.596 155.471 193.391 155.628 192.768 157.215C192.146 158.803 191.153 159.125 191.153 159.125L192.673 155.477C192.673 155.477 183.249 150.366 183.078 148.457C182.906 146.548 185.288 143.038 186.657 140.862C188.026 138.686 190.777 138.87 194.383 140.875C197.99 142.873 203.684 149.689 203.684 149.689Z" fill="#121721"/>
<path d="M197.997 302.224C209.808 302.224 219.383 292.65 219.383 280.84C219.383 269.031 209.808 259.457 197.997 259.457C186.185 259.457 176.61 269.031 176.61 280.84C176.61 292.65 186.185 302.224 197.997 302.224Z" fill="#992C29"/>
<path d="M193.664 290.311C198 290.311 201.514 286.797 201.514 282.462C201.514 278.128 198 274.614 193.664 274.614C189.329 274.614 185.814 278.128 185.814 282.462C185.814 286.797 189.329 290.311 193.664 290.311Z" fill="#4B3355"/>
<path d="M179.313 254.989C179.313 254.989 180.669 275.017 192.85 285.576C205.032 296.134 215.729 299.925 215.729 299.925" stroke="#856792" stroke-width="3" stroke-miterlimit="10"/>
<path d="M173.359 253.908C173.359 253.908 174.714 273.936 186.896 284.494C199.078 295.053 209.775 298.843 209.775 298.843" stroke="#BB83C3" stroke-width="3" stroke-miterlimit="10"/>
<path d="M175.255 259.184C175.255 259.184 177.965 285.576 190.147 296.134C202.329 306.692 213.026 310.483 213.026 310.483" stroke="#665070" stroke-width="3" stroke-miterlimit="10"/>
<path d="M293.926 310.708C287.711 304.94 291.229 306.117 260.138 291.036C241.126 281.812 226.905 277.05 220.424 275.1C218.008 274.374 213.799 275.62 213.231 278.849C211.944 286.116 210.808 290.612 208.721 294.492C206.668 298.296 204.799 299.74 201.576 298.036C198.476 296.394 194.527 291.967 193.364 296.421C192.221 300.821 192.029 311.167 195.861 313.719C204.3 319.351 253.383 352.065 274.784 357.279C299.182 363.225 300.331 316.662 293.926 310.708Z" fill="#C94039"/>
<path d="M269.322 314.492C264.881 310.544 271.232 311.933 248.743 301.368C234.802 294.82 224.29 291.344 219.472 289.907C217.672 289.366 214.524 290.174 214.1 292.398C213.135 297.42 212.286 300.534 210.712 303.209C209.166 305.843 207.756 306.836 205.319 305.611C202.972 304.434 199.981 301.293 199.092 304.4C198.209 307.479 198.051 314.746 200.96 316.566C207.366 320.569 244.144 343.094 259.741 347.022C268.125 349.15 273.887 318.55 269.322 314.492Z" fill="#EE5D4F"/>
<path d="M192.823 305.296L282.599 352.859" stroke="#1D2538" stroke-width="0.5" stroke-miterlimit="10"/>
<path d="M298.675 304.078C298.675 304.078 284.502 297.064 282.517 302.162C281.415 314.999 274.387 339.79 267.858 356.766C269.747 359.25 279.013 366.489 286.576 364.019C294.494 361.439 298.675 304.078 298.675 304.078Z" fill="#F7BC4B"/>
<path d="M283.427 337.107C280.663 335.369 279.253 332.098 279.848 328.882C281.751 318.564 284.132 298.029 282.517 302.169C281.415 315.006 274.387 339.796 267.858 356.773C269.747 359.257 279.013 366.496 286.576 364.026C290.668 362.692 293.207 338.907 293.207 338.907C288.382 338.756 285.727 338.551 283.427 337.107Z" fill="#FEED7F"/>
<path d="M167.686 282.093C157.242 274.997 153.341 201.138 155.189 182.451C156.873 165.42 156.223 172.002 156.223 172.002C156.223 172.002 155.477 168.362 164.011 168.362C172.49 168.362 172.477 168.574 173.442 170.907C174.42 173.268 174.961 177.203 176.008 178.749C177.062 180.309 178.999 180.857 180.778 180.816C182.551 180.768 180.032 178.072 185.309 178.051C190.565 178.031 192.495 177.148 193.877 182.697C195.301 188.411 205.176 238.013 207.209 252.916C204.163 251.753 197.251 252.854 188.395 257.015C179.396 261.243 173.517 267.675 171.847 273.43C170.143 279.274 172.148 285.124 167.686 282.093Z" fill="#C94039"/>
<path d="M198.537 205.449L196.464 194.528C196.464 194.528 173.722 187.672 154.587 197.053L154.95 208.603C154.95 208.61 177.602 197.874 198.537 205.449Z" fill="#F7BC4B"/>
<path d="M155.216 213.975L155.08 210.184C155.08 210.184 167.138 205.702 177.144 204.908C189.059 203.964 199.071 207.748 199.071 207.748L199.749 211.676C199.749 211.676 191.304 207.303 177.356 208.289C171.026 208.74 163.552 210.718 155.216 213.975Z" fill="#F7BC4B"/>
<path d="M166.146 278.925C160.363 262.023 157.544 222.056 157.544 222.056C157.544 222.056 156.873 218.771 164.565 218.771C172.21 218.771 187.492 227.078 191.502 231.704C199.174 240.544 202.425 249.57 200.981 250.288C199.537 251.007 192.809 252.553 184.823 256.303C176.706 260.114 171.402 265.917 169.897 271.11C168.364 276.379 167.72 283.537 166.146 278.925Z" fill="#EE5D4F"/>
<path d="M162.71 168.362C158.618 175.95 158.652 212.059 163.073 239.285C166.44 260.039 172.818 270.96 172.818 270.96" stroke="#1D2538" stroke-width="0.5" stroke-miterlimit="10"/>
<path d="M293.597 303.715C293.597 303.715 309.269 279.896 360.714 276.105C420.993 269.968 449.634 292.179 449.634 292.179L500.956 577.857L265.106 570.925L293.597 303.715Z" fill="#992C29"/>
<path d="M284.091 392.505C284.091 392.505 321.451 367.331 374.251 367.331C427.05 367.331 467.565 391.964 467.565 391.964L474.696 431.124C474.696 431.124 427.858 407.121 377.501 406.313C327.145 405.506 279.67 433.293 279.67 433.293L284.091 392.505Z" fill="#F7BC4B"/>
<path d="M278.363 446.773C278.363 446.773 319.172 424.309 375.913 424.309C432.655 424.309 477.132 446.185 477.132 446.185L484.175 482.191C484.175 482.191 419.556 454.581 378.405 454.943C337.253 455.306 274.256 482.41 274.256 482.41L278.363 446.773Z" fill="#F7BC4B"/>
<path d="M299.14 325.906C299.14 325.906 309.105 314.294 349.88 311.29C404.028 321.034 478.755 505.647 478.755 505.647C478.755 505.647 434.352 486.7 377.495 485.886C320.637 485.071 276.234 514.31 276.234 514.31L299.14 325.906Z" fill="#EE5D4F"/>
<path d="M446.288 434.628C446.288 434.628 450.593 443.113 455.199 452.733C459.024 460.725 463.007 469.511 465.361 474.732C373.703 422.824 280.471 480.199 280.471 480.199L284.837 443.701C284.837 443.701 325.503 424.528 377.679 424.809C411.611 424.987 431.827 430.577 446.288 434.628Z" fill="#FEED7F"/>
<path d="M291.578 388.16L286.438 429.77C286.438 429.77 309.002 413.347 357.867 409.153C406.738 404.958 436.967 416.598 436.967 416.598C436.967 416.598 425.079 393.319 410.796 371.122C410.796 371.115 358.544 354.604 291.578 388.16Z" fill="#FEED7F"/>
<path d="M453.843 312.378C453.843 312.378 422.978 284.494 364.409 289.175C342.982 290.885 318.296 297.577 292.837 312.925" stroke="#1D2538" stroke-width="0.5" stroke-miterlimit="10"/>
<path d="M316.763 300.917L313.69 366.92" stroke="#1D2538" stroke-width="0.5" stroke-miterlimit="10"/>
<path d="M285.111 384.437L284.974 384.554L285.015 384.068C285.015 384.068 290.962 378.258 302.713 371.956C313.56 366.147 331.642 358.778 356.197 356.67C411.098 351.949 455.431 367.735 465.512 380.585L465.642 381.303L465.437 381.05C455.808 368.214 411.378 352.27 356.224 357.005C331.724 359.113 313.684 366.455 302.871 372.251C291.168 378.532 285.173 384.376 285.111 384.437Z" fill="#1D2538"/>
<path d="M477.673 494.015C477.673 494.015 432.642 459.843 372.629 464.776C326.338 468.581 293.57 480.206 278.206 492.407" stroke="#1D2538" stroke-width="0.5" stroke-miterlimit="10"/>
<path d="M375.51 288.737L375.872 321.581C375.872 321.581 404.438 321.992 415.58 324.469C431.827 328.075 435.434 330.244 435.434 330.244L432.546 299.562C432.546 299.562 405.855 287.745 375.51 288.737Z" stroke="#1D2538" stroke-width="0.5" stroke-miterlimit="10"/>
<path d="M433.99 314.362C433.99 314.362 446.986 318.331 451.318 322.3" stroke="#1D2538" stroke-width="0.5" stroke-miterlimit="10"/>
<path d="M375.873 314.362C375.873 314.362 341.579 312.2 315.949 325.187" stroke="#1D2538" stroke-width="0.5" stroke-miterlimit="10"/>
<path d="M435.434 330.244L437.692 365.114" stroke="#1D2538" stroke-width="0.5" stroke-miterlimit="10"/>
<path d="M577.304 154.109L569.995 184.969L575.682 179.283L581.363 153.295L577.304 154.109Z" fill="#3E4C6F"/>
<path d="M566.478 156.634L559.162 187.494L564.849 181.808L570.536 155.826L566.478 156.634Z" fill="#3E4C6F"/>
<path d="M567.648 155.375L574.143 178.113L569.27 185.421L561.961 164.304L563.59 191.107L551.401 188.671L557.902 156.182L567.648 155.375Z" fill="#1D2538"/>
<path d="M551.695 257.514C548.308 256.638 546.159 253.846 546.364 250.754C547.247 237.342 549.143 203.95 549.321 201.726C549.533 199.01 550.792 196.355 555.021 195.609C559.223 194.87 564.418 194.87 564.965 192.674C565.499 190.518 564.904 186.94 568.538 186.68C572.165 186.42 577.127 185.571 579.091 187.371C581.76 189.814 592.785 236.042 594.154 257.343C595.762 282.387 575.607 294.485 574.054 292.172C572.528 289.893 579.276 284.542 573.363 268.818C569.907 259.615 557.485 259.013 551.695 257.514Z" fill="#1D2538"/>
<path d="M573.513 247.681C573.513 247.681 572.158 267.71 559.976 278.268C547.794 288.826 537.097 292.617 537.097 292.617" stroke="#4B3355" stroke-width="3" stroke-miterlimit="10"/>
<path d="M575.949 247.681C575.949 247.681 575.135 269.605 562.953 280.163C550.771 290.721 539.534 292.617 539.534 292.617" stroke="#665070" stroke-width="3" stroke-miterlimit="10"/>
<path d="M560.77 233.832C560.77 233.832 557.457 253.559 545.221 264.056C532.984 274.545 521.124 281.107 521.124 281.107" stroke="#665070" stroke-width="3" stroke-miterlimit="10"/>
<path d="M564.294 234.106C564.294 234.106 560.982 253.833 548.745 264.329C536.509 274.819 524.648 281.381 524.648 281.381" stroke="#4B3355" stroke-width="3" stroke-miterlimit="10"/>
<path d="M573.089 240.469C573.089 240.469 569.776 260.196 557.54 270.693C545.303 281.183 533.443 287.745 533.443 287.745" stroke="#4B3355" stroke-width="3" stroke-miterlimit="10"/>
<path d="M556.76 171.687C556.76 171.687 544.626 176.416 541.635 174.37C538.644 172.324 535.742 168.875 533.792 164.037C531.842 159.193 529.871 156.093 531.972 154.314C534.066 152.535 536.331 150.722 536.331 150.722C536.331 150.722 534.168 152.166 532.492 149.702C530.815 147.239 525.73 135.867 526.935 133.041C528.139 130.208 530.699 126.26 531.684 125.035C532.67 123.81 533.361 124.72 533.361 124.72C533.361 124.72 533.573 121.21 535.332 119.492C537.091 117.775 540.218 116.844 540.218 116.844C540.218 116.844 540.28 114.401 542.271 112.985C544.263 111.568 545.064 111.678 548.657 110.918C552.25 110.159 554.522 110.255 554.522 110.255C554.522 110.255 557.376 108.332 558.881 108.051C560.394 107.771 567.682 106.833 570.735 109.215C573.787 111.596 579.077 119.451 580.932 126.567C582.786 133.684 584.34 152.138 580.836 159.391C577.339 166.638 564.404 170.777 556.76 171.687Z" fill="#992C29"/>
<path d="M549.608 162.936C549.608 162.936 540.875 167.897 538.754 167.411C536.632 166.925 535.25 165.988 533.73 162.197C532.211 158.406 530.664 155.984 532.307 154.588C533.949 153.192 534.031 152.905 532.717 150.982C531.403 149.052 527.427 140.157 528.372 137.947C529.316 135.73 531.314 132.644 532.088 131.679C532.861 130.714 533.402 131.432 533.402 131.432C533.402 131.432 533.566 128.689 534.942 127.341C536.317 125.993 538.76 125.267 538.76 125.267C538.76 125.267 538.808 123.358 540.369 122.25C541.929 121.141 542.552 121.23 545.365 120.635C548.171 120.04 549.95 120.115 549.95 120.115C549.95 120.115 552.181 118.609 553.358 118.391C554.535 118.172 560.243 117.439 562.631 119.301C565.02 121.162 569.16 127.313 570.611 132.876C572.062 138.446 573.007 144.023 570.269 149.695C567.532 155.368 559.586 154.006 549.608 162.936Z" fill="#C94039"/>
<path d="M557.088 108.859C557.088 108.859 552.53 112.314 552.297 114.572C552.065 116.83 554.83 129.462 555.767 133.061C556.705 136.66 557.095 137.372 559.346 138.248C561.598 139.124 565.52 138.521 565.52 138.521C565.52 138.521 564.151 139.561 561.016 139.493C557.882 139.431 556.219 137.529 555.473 137.016C554.727 136.503 554.015 132.733 553.338 129.085C552.653 125.438 550.682 116.304 550.395 114.798C550.107 113.293 552.044 110.453 557.088 108.859Z" fill="#121721"/>
<path d="M540.376 116.721C540.376 116.721 540.362 121.757 542.518 131.857C543.223 135.155 543.668 140.061 548.465 139.507C551.538 138.781 557.006 137.386 557.006 137.386L557.204 138.001C557.204 138.001 553.071 139.555 550.326 140.205C547.582 140.848 545.248 140.896 543.914 139.322C542.579 137.748 540.54 128.497 540.068 123.899C539.602 119.294 538.466 118.117 540.376 116.721Z" fill="#121721"/>
<path d="M533.361 124.713C533.361 124.713 535.571 136.455 536.351 139.952C537.132 143.448 539.315 144.427 542.73 146.65L541.607 146.685C541.607 146.685 536.276 143.954 535.667 140.684C535.051 137.413 532.587 124.405 532.587 124.405C532.587 124.405 532.731 124.35 532.991 124.433C533.251 124.521 533.361 124.713 533.361 124.713Z" fill="#121721"/>
<path d="M534.442 152.679C534.442 152.679 541.69 146.897 545.105 144.953C548.52 143.01 551.449 145.46 552.229 147.526C553.01 149.593 553.92 150.53 551.682 153.165C549.444 155.799 544.804 160.055 544.804 160.055C544.804 160.055 548.931 162.245 550.689 164.297C550.06 161.937 546.795 159.131 546.795 159.131C546.795 159.131 553.947 152.843 554.248 150.961C554.549 149.08 553.112 147.362 551.908 145.111C550.703 142.86 547.966 142.853 544.256 144.591C540.547 146.329 534.442 152.679 534.442 152.679Z" fill="#121721"/>
<path d="M556.007 297.577C567.818 297.577 577.394 288.004 577.394 276.194C577.394 264.385 567.818 254.811 556.007 254.811C544.195 254.811 534.62 264.385 534.62 276.194C534.62 288.004 544.195 297.577 556.007 297.577Z" fill="#992C29"/>
<path d="M559.258 283.502C563.147 283.502 566.3 280.35 566.3 276.461C566.3 272.573 563.147 269.42 559.258 269.42C555.368 269.42 552.215 272.573 552.215 276.461C552.215 280.35 555.368 283.502 559.258 283.502Z" fill="#4B3355"/>
<path d="M576.264 250.295C576.264 250.295 574.909 270.323 562.727 280.882C550.545 291.44 539.849 295.23 539.849 295.23" stroke="#856792" stroke-width="3" stroke-miterlimit="10"/>
<path d="M582.225 249.214C582.225 249.214 580.87 269.242 568.688 279.8C556.506 290.359 545.81 294.149 545.81 294.149" stroke="#BB83C3" stroke-width="3" stroke-miterlimit="10"/>
<path d="M578.974 260.853C578.974 260.853 577.619 280.882 565.437 291.44C553.255 301.998 542.559 305.789 542.559 305.789" stroke="#665070" stroke-width="3" stroke-miterlimit="10"/>
<path d="M451.831 291.248C451.831 291.248 516.621 270.105 525.6 267.532C534.223 265.055 537.727 266.471 538.788 273.711C539.835 280.841 543.387 284.241 549.964 285.062C556.308 285.856 558.039 285.63 559.34 285.89C560.64 286.15 561.455 288.915 561.537 295.449C561.612 301.717 563.733 302.757 550.135 311.16C535.647 320.11 475.873 346.454 475.873 346.454C475.873 346.454 458.217 337.1 452.646 323.723C446.842 309.805 451.831 291.248 451.831 291.248Z" fill="#C94039"/>
<path d="M498.334 308.108C513.165 303.127 531.944 294.403 537.132 294.998C542.155 295.573 548.828 297.516 553.078 297.406C557.3 297.304 558.477 295.313 558.553 300.376C558.621 305.241 554.056 306.274 543.38 312.864C532.033 319.864 479.945 341.37 479.945 341.37C479.945 341.37 472.219 332.892 471.137 322.389C470.549 316.579 483.258 313.172 498.334 308.108Z" fill="#EE5D4F"/>
<path d="M477.728 330.189C477.803 331.421 476.907 332.468 475.716 332.529C474.525 332.591 473.492 331.633 473.409 330.401C473.327 329.163 474.231 328.109 475.422 328.054C476.619 327.993 477.646 328.951 477.728 330.189Z" fill="#3E4C6F"/>
<path d="M467.182 338.701L561.454 298.843" stroke="#1D2538" stroke-width="0.5" stroke-miterlimit="10"/>
<path d="M456.786 288.593C456.786 288.593 445.679 290.612 443.509 293.178C441.326 295.757 444.351 319.084 451.099 332.7C457.56 345.729 464.65 351.743 471.398 348.774C474.696 347.316 478.036 345.551 478.036 345.551C478.036 345.551 471.137 337.887 464.615 318.454C457.436 297.044 456.786 288.593 456.786 288.593Z" fill="#FEED7F"/>
<path d="M456.786 288.593C456.786 288.593 445.679 290.612 443.509 293.178C441.326 295.757 448.977 319.446 448.977 319.446C448.977 319.446 451.852 323.388 464.615 318.454C457.436 297.044 456.786 288.593 456.786 288.593Z" fill="#F7BC4B"/>
<path d="M556.007 248.489C549.69 248.489 546.713 253.06 546.713 253.06C546.713 253.06 546.104 252.854 546.508 248.612C547.952 230.814 549.3 191.75 549.444 189.875C549.677 186.837 551.038 183.867 555.624 183.032C560.175 182.205 565.807 182.205 566.396 179.748C566.978 177.339 566.334 173.33 570.269 173.042C574.198 172.755 579.577 171.804 581.705 173.816C584.6 176.553 596.543 228.255 598.028 252.088C599.773 280.102 577.346 294.293 575.669 291.707C574.013 289.154 584.621 281.976 578.215 264.384C574.458 254.086 562.324 248.489 556.007 248.489Z" fill="#C94039"/>
<path d="M550.545 218.717C550.545 218.717 563.542 220.338 569.496 217.095C575.45 213.845 569.16 188.602 569.16 188.602L551.497 192.325L550.545 218.717Z" stroke="#1D2538" stroke-width="0.5" stroke-miterlimit="10"/>
<path d="M557.971 246.532C550.456 246.86 548.971 247.531 549.327 243.802C549.957 230.541 586.42 224.765 589.219 224.854C592.682 224.964 596.44 238.93 595.358 256.255C594.277 273.581 584.812 287.82 583.443 271.411C582.718 262.749 575.135 245.786 557.971 246.532Z" fill="#EE5D4F"/>
<path d="M574.957 172.515C575.977 175.499 596.795 238.204 585.428 285.849" stroke="#1D2538" stroke-width="0.5" stroke-miterlimit="10"/>
<path d="M467.6 248.81C464.39 252.013 457.047 257.323 460.681 260.799C463.493 263.495 467.004 260.628 472.965 254.743C476.798 250.959 470.809 245.608 467.6 248.81Z" fill="#CC6D3D"/>
<path d="M464.999 256.919L466.853 260.066L472.137 254.688L464.999 256.919Z" fill="#F5894E"/>
<path d="M478.645 242.755C478.645 242.755 475.47 239.826 471.808 243.713C467.681 248.099 467.483 248.427 467.483 248.427L472.958 254.743C472.958 254.743 480.096 243.938 478.645 242.755Z" fill="#C94039"/>
<path d="M460.051 260.771C462.727 262.283 463.958 262.29 465.676 260.108C467.394 257.925 462.775 254.941 455.842 251.294C448.902 247.647 446.569 245.984 445.494 247.565C444.413 249.146 447.486 252.806 452.304 255.934C457.122 259.061 457.375 259.259 460.051 260.771Z" fill="#CC6D3D"/>
<path d="M459.599 260.224C462.275 261.736 463.473 260.915 463.473 260.915L461.604 258.13C461.604 258.13 446.5 251.691 451.318 254.818C456.136 257.945 456.923 258.712 459.599 260.224Z" fill="#F5894E"/>
<path d="M445.309 251.233C444.084 250.418 443.318 250.028 442.606 249.31C441.785 248.085 441.093 245.697 440.471 244.677C439.184 242.584 440.601 240.825 441.155 242.235C441.709 243.644 444.413 246.073 444.413 246.073L443.235 241.824L439.814 237.664C439.814 237.664 439.656 234.051 440.744 234.4C441.832 234.749 443.906 239.073 445.74 239.532C447.574 239.99 449.983 247.312 449.477 248.92C448.971 250.528 446.904 252.191 445.309 251.233Z" fill="#CC6D3D"/>
<path d="M461.125 278.788C461.125 278.788 459.702 283.968 470.802 282.086C481.903 280.204 502.16 275.277 502.16 275.277C502.16 275.277 467.921 270.406 461.125 278.788Z" fill="#EE5D4F"/>
<path d="M475.846 300.212L484.352 313.336L488.11 309.292L481.553 295.805L475.846 300.212Z" fill="#CC6D3D"/>
<path d="M466.744 277.399C465.998 277.583 461.577 278.425 465.779 285.439C470.624 293.527 471.788 295.34 475.942 300.472L481.704 296.202C481.704 296.202 478.426 287.991 476.845 283.331C474.895 277.583 467.49 277.214 466.744 277.399Z" fill="#1D2538"/>
<path d="M475.75 296.428C472.67 295.621 461.577 278.425 465.779 285.439C470.624 293.527 471.787 295.34 475.942 300.472L481.704 296.202C481.704 296.209 478.837 297.235 475.75 296.428Z" fill="#3E4C6F"/>
<path d="M484.017 311.879C484.017 311.879 482.135 319.576 484.182 320.432C486.228 321.287 489.39 311.105 488.11 309.292C486.83 307.479 484.017 311.879 484.017 311.879Z" fill="#CC6D3D"/>
<path d="M483.716 313.151C483.716 313.151 483.141 318.215 484.175 318.283C485.201 318.352 487.029 314.896 487.603 313.849C488.178 312.802 487.446 309.237 488.267 309.107C489.082 308.977 490.389 311.29 490.423 312.316C490.437 312.672 489.704 313.541 489.109 315.649C488.726 317.004 488.603 319.433 488.062 320.712C487.022 323.169 485.167 324.88 484.428 325.256C482.717 326.139 482.313 323.586 482.3 320.302C482.279 317.017 483.716 313.151 483.716 313.151Z" fill="#C94039"/>
<path d="M487.768 312.741C487.87 311.365 487.453 309.244 488.267 309.114C489.082 308.984 490.389 311.297 490.423 312.323C490.437 312.679 489.704 313.548 489.109 315.656C488.726 317.01 488.602 319.44 488.062 320.719C487.022 323.176 485.167 324.886 484.428 325.263C482.717 326.145 487.295 322.457 487.275 319.173C487.268 318.365 484.968 317.9 484.968 317.9C484.968 317.9 487.583 315.184 487.768 312.741Z" fill="#992C29"/>
<path d="M477.591 269.933C477.591 269.933 468.167 274.094 465.444 277.303C462.72 280.512 462.98 287.273 476.216 282.093C485.359 278.514 494.701 275.004 490.348 273.875C486.002 272.746 482.231 267.648 477.591 269.933Z" fill="#1D2538"/>
<path d="M477.311 320.61C477.311 320.61 475.607 323.559 474.888 325.228C474.265 326.686 473.033 328.616 472.801 329.745C472.301 332.181 472.493 333.529 473.54 333.659C474.587 333.789 477.386 332.872 478.967 331.134C479.857 330.155 481.581 325.571 481.93 323.374C482.211 321.663 480.315 316.463 477.311 320.61Z" fill="#C94039"/>
<path d="M478.96 327.206C478.05 331.613 472.493 333.535 473.54 333.659C474.587 333.789 477.386 332.872 478.967 331.134C479.857 330.155 482.649 324.106 483.005 321.91C483.279 320.192 481.978 318.707 481.602 318.345C481.232 317.989 476.058 323.114 478.96 327.206Z" fill="#992C29"/>
<path d="M478.85 305.816L477.927 318.783C477.927 318.783 474.854 327.411 475.668 327.445C476.483 327.48 479.357 325.434 480.904 322.245C481.903 320.172 484.503 308.916 485.516 306.049C488.911 296.394 479.145 297.879 478.85 305.816Z" fill="#F5894E"/>
<path d="M492.915 272.534C490.855 273.54 481.999 275.476 481.13 281.436C480.055 288.771 478.83 306.083 478.83 306.083L485.366 306.316C485.366 306.316 489.595 296.674 490.807 290.537C491.669 286.171 492.025 282.661 492.025 282.661C492.025 282.661 500.935 276.051 501.695 273.635C502.448 271.22 494.975 271.528 492.915 272.534Z" fill="#1D2538"/>
<path d="M480.165 290.557L479.597 296.9L478.823 306.09L485.366 306.315L480.739 301.293L480.165 290.557Z" fill="#3E4C6F"/>
<path d="M497.014 263.768C497.903 262.646 496.069 260.764 495.823 258.294C495.412 254.107 495.843 248.55 494.735 244.541C493.968 241.756 493.996 241.407 492.155 240.093C490.936 239.224 486.214 240.825 481.43 241.017C476.599 241.215 476.277 241.509 474.477 246.703C472.766 251.636 474.224 252.526 476.154 255.954C477.694 258.691 480.178 261.633 480.178 261.633C480.178 261.633 480.739 264.993 485.037 265.842C490.663 266.964 494.612 266.8 497.014 263.768Z" fill="#CE9436"/>
<path d="M477.646 235.317L479.562 241.372C479.562 241.372 480.602 244.048 482.635 244.068C484.668 244.089 485.927 241.516 485.749 240.887C485.571 240.257 483.237 232.942 483.237 232.942L477.646 235.317Z" fill="#CC6D3D"/>
<path d="M480.698 262.297C478.193 263.563 471.924 269.393 468.044 271.685C459.613 277.755 461.125 278.788 461.125 278.788C461.125 278.788 464.013 276.119 467.435 276.913C469.317 277.351 473.608 280.806 479.254 278.186C483.401 276.263 490.06 275.353 490.06 275.353C490.06 275.353 496.425 276.523 497.609 276.817C501.243 277.72 503.412 275.257 503.412 275.257C502.044 271.514 497.315 260.504 494.016 259.259C490.704 258.02 483.203 261.031 480.698 262.297Z" fill="#F7BC4B"/>
<path d="M497.602 276.824C501.209 277.802 503.406 275.264 503.406 275.264C501.421 269.331 497.732 263.488 497.732 263.488L500.798 273.238L497.602 276.824Z" fill="#CE9436"/>
<path d="M482.922 254.777C481.711 255.454 474.977 251.082 475.6 252.663C476.222 254.236 480.472 263.72 482.341 264.487C484.202 265.253 486.098 261.202 488.534 260.614C490.971 260.025 495.207 261.756 495.077 260.716C494.947 259.676 489.8 250.932 482.922 254.777Z" fill="#F7BC4B"/>
<path d="M479.931 275.428C477.892 276.605 473.71 277.33 473.71 277.33C473.71 277.33 478.515 274.826 482.375 268.845C482.381 268.845 481.971 274.251 479.931 275.428Z" fill="#CE9436"/>
<path d="M500.326 249.125C500.326 249.125 503.112 254.106 504.172 257.808C505.233 261.51 502.571 263.228 500.901 263.152C499.231 263.084 495.926 254.715 493.784 251.274C491.642 247.832 497.37 243.364 500.326 249.125Z" fill="#CC6D3D"/>
<path d="M493.708 252.327C493.708 252.327 488.35 243.24 492.374 240.572C496.391 237.896 499.888 246.819 500.764 249.392L493.708 252.327Z" fill="#C94039"/>
<path d="M507.615 276.188C507.615 276.188 499.813 264.938 498.656 260.915C497.5 256.891 502.325 256.269 504.084 257.836C505.836 259.396 509.99 270.83 510.866 273.676C511.742 276.523 509.374 277.583 507.615 276.188Z" fill="#CC6D3D"/>
<path d="M506.376 273.772C506.376 273.772 500.367 265.103 499.477 262.01C498.588 258.91 508.21 269.646 508.881 271.842C509.551 274.032 507.738 274.846 506.376 273.772Z" fill="#F5894E"/>
<path d="M507.396 274.613C507.396 274.613 507.026 277.384 507.533 279.197C507.717 280.019 509.244 280.183 510.455 280.388C511.666 280.593 512.884 280.566 513.576 280.518C514.26 280.47 515.239 279.697 512.987 279.15C512.022 278.917 510.01 278 510.01 278C510.01 278 509.709 276.057 509.271 275.078C508.552 273.457 507.396 274.613 507.396 274.613Z" fill="#CC6D3D"/>
<path d="M510.77 278.418C510.77 278.418 514.424 278.145 515.67 278.309C516.991 278.487 519.468 279.185 519.94 278.507C520.399 277.837 518.763 276.817 518.243 276.776C517.737 276.728 513.945 276.53 513.945 276.53C513.945 276.53 506.725 276.927 510.77 278.418Z" fill="#CC6D3D"/>
<path d="M509.579 276.386C509.579 276.386 513.521 274.963 514.226 274.867C514.951 274.771 519.913 278.144 518.353 278.138C516.881 278.131 515.287 276.66 514.034 277.46C512.796 278.247 509.182 278.794 509.579 276.386Z" fill="#CC6D3D"/>
<path d="M509.278 275.079C509.278 275.079 511.974 273.882 512.679 274.148C513.418 274.429 516.094 276.578 514.479 276.578C512.967 276.584 509.449 278.842 509.278 275.079Z" fill="#CC6D3D"/>
<path d="M470.494 234.694C470.494 234.694 473.204 239.21 477.338 237.363C481.471 235.508 482.491 224.991 476.359 225.197C470.227 225.402 468.201 231.608 470.494 234.694Z" fill="#273252"/>
<path d="M473.451 220.585C475.517 218.354 476.291 215.487 480.808 216.424C480.808 216.424 485.434 214.926 489.876 218.101C495.2 221.912 493.181 227.434 493.181 227.434C493.181 227.434 499.039 233.319 492.024 237.253C488.644 239.149 482.45 237.253 479.733 236.384C473.676 234.455 471.384 222.815 473.451 220.585Z" fill="#273252"/>
<path d="M479.548 219.223C477.263 219.798 469.098 218.723 468.913 216.842C468.728 214.96 475.695 212.907 476.729 216.862C476.729 216.862 475.08 213.017 477.434 211.956C479.795 210.889 481.834 218.648 479.548 219.223Z" fill="#273252"/>
<path d="M471.398 227.181C470.426 236.056 476.079 238.177 482.197 237.39C486.796 236.802 487.439 233.88 487.186 228.077C486.933 222.275 484.654 217.95 480.028 217.629C473.916 217.204 472.027 221.419 471.398 227.181Z" fill="#CC6D3D"/>
<path d="M473.328 232.005C474.395 235.132 476.818 237.411 481.02 236.904C484.394 236.501 486.365 233.907 486.516 230.691C486.666 227.475 479.535 225.244 476.188 225.142C471.774 225.012 472.26 228.871 473.328 232.005Z" fill="#F5894E"/>
<path d="M488.24 229.199L484.339 229.001C484.339 229.001 484.168 221.905 479.672 220.201C474.95 218.409 472.794 221.433 472.794 221.433C472.794 221.433 475.046 215.364 482.026 217.909C487.576 219.928 488.24 229.199 488.24 229.199Z" fill="#F7BC4B"/>
<path d="M489.171 229.644C489.641 227.868 488.898 226.132 487.513 225.766C486.128 225.4 484.625 226.543 484.156 228.318C483.687 230.094 484.429 231.83 485.814 232.196C487.199 232.562 488.702 231.419 489.171 229.644Z" fill="#F5894E"/>
<path d="M478.522 223.746C478.522 223.746 477.331 222.959 476.564 222.966" stroke="#1D2538" stroke-width="0.25" stroke-miterlimit="10" stroke-linecap="round" stroke-linejoin="round"/>
<path d="M477.546 226.074C477.696 225.38 477.516 224.751 477.143 224.67C476.77 224.589 476.345 225.086 476.195 225.781C476.044 226.475 476.224 227.104 476.597 227.185C476.97 227.265 477.395 226.768 477.546 226.074Z" fill="#273252"/>
<path d="M473.144 225.501C473.205 224.862 473.059 224.324 472.818 224.301C472.578 224.278 472.333 224.778 472.272 225.418C472.21 226.057 472.356 226.594 472.597 226.617C472.837 226.64 473.082 226.141 473.144 225.501Z" fill="#273252"/>
<path d="M473.676 222.514C473.676 222.514 472.8 222.453 472.369 222.87" stroke="#1D2538" stroke-width="0.25" stroke-miterlimit="10" stroke-linecap="round" stroke-linejoin="round"/>
<path d="M488.452 231.67C488.452 231.67 484.38 229.932 482.005 232.662C479.63 235.392 483.449 242.255 488.089 239.764C492.729 237.287 491.573 232.682 488.452 231.67Z" fill="#273252"/>
<path d="M482.423 219.291C482.423 219.291 482.238 222.336 483.005 224.437C483.586 226.024 484.373 226.948 484.373 226.948L484.565 226.305L485.509 226.394C485.509 226.394 483.648 224.259 483.1 219.442L482.423 219.291Z" fill="#EE5D4F"/>
<path d="M482.464 218.956C482.464 218.956 481.246 221.755 481.246 223.985C481.246 225.676 481.67 226.811 481.67 226.811L482.067 226.271L482.922 226.675C482.922 226.675 481.909 224.033 483.039 219.312L482.464 218.956Z" fill="#EE5D4F"/>
<path d="M482.334 220.913C482.943 221.31 486.057 218.97 484.859 217.752C483.736 216.602 482.258 215.507 481.656 216.602C481.047 217.69 481.718 220.516 482.334 220.913Z" fill="#EE5D4F"/>
<path d="M484.271 219.736C484.271 219.736 485.195 218.354 484.798 218.032C484.401 217.711 484.257 218.539 483.614 219.415C482.977 220.304 483.867 220.311 484.271 219.736Z" fill="#F7BC4B"/>
<path d="M482.437 219.921C482.437 219.921 482.875 219.291 484.175 219.51C485.482 219.722 486.365 220.003 486.584 220.797C486.803 221.591 485.674 223.157 484.729 223.589C483.778 224.02 482.485 221.816 482.279 221.132C482.074 220.448 482.437 219.921 482.437 219.921Z" fill="#EE5D4F"/>
<path d="M485.81 222.186C485.81 222.186 484.934 223.465 484.264 223.178C483.265 222.754 485.715 221.07 486.07 220.776C486.42 220.482 486.693 221.508 485.81 222.186Z" fill="#F7BC4B"/>
<path d="M185.952 531.218C185.952 531.218 99.6861 585.774 74.857 596.277C49.1655 607.143 98.0778 608.101 98.0778 608.101C98.0778 608.101 75.4798 621.971 91.9664 623.894C108.549 625.83 117.911 623.894 117.911 623.894C117.911 623.894 79.0727 639.728 109.418 654.234C141.125 669.39 324.695 721.77 435.557 692.258C537.96 664.991 540.164 655.993 576.723 658.066C613.508 660.153 595.18 643.546 582.28 638.626C582.28 638.626 628.865 641.904 615.739 622.183C589.856 583.297 570.255 571.295 570.255 571.295L185.952 531.218Z" fill="#1D2538"/>
<path d="M365.511 682.747C366.524 680.366 383.059 665.449 374.949 664.019C366.839 662.589 355.068 671.45 355.068 671.45C355.068 671.45 352.542 656.909 348.552 661.165C344.556 665.422 342.167 672.743 342.167 672.743C342.167 672.743 339.245 657.436 334.338 662.123C329.431 666.811 327.405 671.573 327.405 671.573C327.405 671.573 319.727 662.315 317.441 667.68C315.155 673.044 312.616 678.997 312.616 678.997C312.616 678.997 306.313 664.806 301.221 664.813C296.129 664.819 293.125 675.289 293.125 675.289C293.125 675.289 290.093 661.939 284.748 662.541C279.403 663.143 276.755 671.06 276.755 671.06C276.755 671.06 264.935 670.574 262.793 677.293C260.658 684.02 273.75 677.287 302.295 682.802C324.859 687.167 365.511 682.747 365.511 682.747Z" fill="#3E4C6F"/>
<path d="M153.362 643.505C153.362 643.505 135.643 630.353 140.229 629.731C144.903 629.094 150.522 635.629 150.522 635.629C150.522 635.629 150.289 624.818 154.977 629.334C159.603 633.781 163.881 649.081 163.881 649.081C163.881 649.081 158.83 628.157 165.455 635.376C171.908 642.41 174.235 650.991 174.235 650.991C174.235 650.991 193.808 624.674 202.863 635.082C211.595 645.12 205.47 651.189 205.47 651.189C205.47 651.189 211.848 636.101 217.659 645.284C223.25 654.118 197.155 669.342 153.362 643.505Z" fill="#3E4C6F"/>
<path d="M399.415 690.158C399.415 690.158 372.245 694.906 374.771 688.495C377.289 682.083 388.075 684.471 388.075 684.471C388.075 684.471 380.615 667.351 386.706 669.123C392.797 670.903 393.769 673.133 393.769 673.133C393.769 673.133 395.09 661.932 399.271 665.422C403.453 668.918 403.453 668.918 403.453 668.918C403.453 668.918 409.434 652.14 410.536 658.743C411.645 665.346 411.645 665.346 411.645 665.346C411.645 665.346 422.13 652.811 422.848 666.667C423.567 680.523 429.753 680.489 399.415 690.158Z" fill="#3E4C6F"/>
<path d="M429.48 660.488C429.48 660.488 437.603 646.68 438.411 650.744C439.225 654.802 435.974 665.36 435.974 665.36C435.974 665.36 449.785 648.308 453.029 655.616C456.28 662.924 447.342 669.425 447.342 669.425C447.342 669.425 470.084 655.616 469.269 661.302C468.455 666.989 441.655 684.04 427.036 679.168C412.425 674.296 429.48 660.488 429.48 660.488Z" fill="#3E4C6F"/>
<path d="M500.853 644.736C500.853 644.736 491.942 632.351 487.542 639.776C483.141 647.2 491.566 648.117 491.566 648.117C491.566 648.117 477.899 645.701 482.573 653.091C487.247 660.481 490.594 660.687 490.594 660.687C490.594 660.687 477.016 663.205 483.798 668.556C490.574 673.906 521.685 659.044 531.417 658.059C541.149 657.081 539.424 643.354 532.389 645.489C525.347 647.624 525.347 647.624 525.347 647.624C525.347 647.624 530.808 632.57 522.828 634.048C514.842 635.533 514.842 635.533 514.842 635.533C514.842 635.533 504.98 622.498 500.853 644.736Z" fill="#3E4C6F"/>
<path d="M438.418 572.458C438.418 572.458 418.708 600.123 424.668 605.98C430.725 611.933 462.316 601.724 462.316 601.724C462.316 601.724 470.542 613.048 484.175 613.165C497.814 613.288 515.492 595.244 515.492 595.244C515.492 595.244 544.468 610.496 551.949 608.101C559.381 605.72 572.076 584.72 572.076 584.72C572.076 584.72 598.678 592.226 603.461 588.196C608.19 584.214 557.362 533.572 557.362 533.572L538.761 513.482L438.418 572.458Z" fill="#33A86D"/>
<path d="M506.712 563.713C506.691 565.212 501.941 659.373 501.941 659.373L529.138 649.786L519.701 559.252L506.712 563.713Z" fill="#4B3355"/>
<path d="M506.643 564.938C506.622 566.437 503.892 612.864 503.892 612.864L516.115 593.178L522.794 587.224L520.987 564.664L506.643 564.938Z" fill="#34283A"/>
<path d="M466.641 523.581L441.381 562.68C441.381 562.68 425.818 584.953 428.884 589.852C431.998 594.82 469.632 566.341 469.632 566.341C469.632 566.341 480.206 588.189 488.884 588.408C497.568 588.627 513.302 569.037 513.302 569.037C513.302 569.037 540.739 583.55 549.15 581.901C557.526 580.259 565.499 555.762 565.499 555.762C565.499 555.762 578.475 567.422 584.457 561.893C590.342 556.453 552.038 518.867 544.961 508.589C538.186 498.75 538.186 498.75 538.186 498.75L466.641 523.581Z" fill="#288453"/>
<path d="M474.354 482.252L474.238 484.004C471.938 489.916 447.869 531.485 447.869 531.485C447.869 531.485 447.321 544.472 454.445 544.102C461.556 543.733 479.165 530.65 479.165 530.65C479.165 530.65 494.522 551.226 506.41 548.776C518.216 546.347 523.793 525.614 523.793 525.614C523.793 525.614 542.312 535.871 548.951 531.3C555.5 526.798 550.402 519.332 550.402 519.332C550.402 519.332 563.199 523.855 559.86 518.812C556.568 513.845 520.823 465.276 520.823 465.276C520.823 465.276 503.741 442.531 493.92 453.944C483.696 465.823 472.773 482.252 472.773 482.252" fill="#33A86D"/>
<path d="M474.251 470.332L474.142 471.763C471.925 476.587 446.917 519.825 446.917 519.825C446.917 519.825 451.208 525.99 455.52 525.675C459.832 525.361 478.864 509.732 478.864 509.732C478.864 509.732 496.87 526.647 504.966 524.43C512.994 522.227 518.941 505.736 518.941 505.736C518.941 505.736 541.881 513.783 544.886 512.503C547.883 511.231 546.07 504.285 546.07 504.285C546.07 504.285 560.058 508.993 556.999 504.935C553.988 500.939 519.016 456.463 519.016 456.463C519.016 456.463 502.605 437.823 493.12 447.184C483.258 456.914 472.732 470.339 472.732 470.339" fill="#288453"/>
<path d="M498.992 427.689C498.992 427.689 477.27 458.727 463.527 482.711C463.527 482.711 469.844 490.682 474.224 488.937C478.584 487.199 490.047 470.285 490.047 470.285C490.047 470.285 496.85 483.005 505.664 484.764C514.534 486.529 523.581 474.753 523.581 474.753C523.581 474.753 540.39 484.202 539.582 479.276C538.795 474.424 500.443 430.474 498.992 427.689Z" fill="#FFFCF3"/>
<path d="M517.956 598.227L517.148 613.295L518.489 631.715L518.045 649.3L522.972 632.974L520.283 617.9L521.713 586.862L516.156 582.353L517.956 598.227Z" fill="#34283A"/>
<path d="M512.686 630.894L511.242 639.194L514.855 646.776V637.75L514.13 625.481L512.686 630.894Z" fill="#34283A"/>
<path d="M359.81 519.702C359.81 519.702 428.398 623.949 412.151 629.635C395.904 635.321 361.035 615.792 361.035 615.792C361.035 615.792 351.571 635.985 333.804 638.763C316.038 641.541 304.937 622.053 304.937 622.053C304.937 622.053 261.349 628.821 252.411 620.972C243.48 613.124 271.902 576.851 271.902 576.851L326.167 514.344L359.81 519.702Z" fill="#33A86D"/>
<path d="M323.402 589.831L319.604 688.365L339.45 686.996L333.537 588.463L323.402 589.831Z" fill="#4B3355"/>
<path d="M322.806 586.321L321.184 631.072L325.585 628.006L335.891 627.192L334.653 584.672L322.806 586.321Z" fill="#34283A"/>
<path d="M356.56 515.234C356.56 515.234 421.541 596.489 407.279 601.909C393.016 607.321 357.785 589.565 357.785 589.565C357.785 589.565 343.447 605.918 330.553 607.335C317.66 608.751 301.686 594.409 301.686 594.409C301.686 594.409 266.489 610.996 255.121 597.659C243.747 584.323 306.559 507.816 306.559 507.816L356.56 515.234Z" fill="#288453"/>
<path d="M299.277 510.854C299.277 510.854 326.112 475.937 336.644 451.385C336.644 451.385 351.509 485.058 357.655 495.103C363.8 505.148 375.873 520.318 371.52 522.582C367.167 524.847 353.678 512.346 353.678 512.346C353.678 512.346 344.186 520.899 338.068 522.234C331.949 523.568 326.693 518.71 326.693 518.71C326.693 518.71 312.732 526.319 306.963 525.436C301.194 524.553 299.277 510.854 299.277 510.854Z" fill="#FFFCF3"/>
<path d="M329.664 623.312L327.501 640.46L328.404 650.929L328.22 663.198L330.389 651.825L329.848 641L333.092 622.956L329.664 623.312Z" fill="#34283A"/>
<path d="M324.976 632.338L323.887 659.77L324.976 667.351L322.443 657.785L322.806 642.444L324.976 632.338Z" fill="#34283A"/>
<path d="M331.471 664.279L333.64 675.467L335.084 685.395L334.899 674.023L332.552 665.182L332.196 656.704L331.471 664.279Z" fill="#34283A"/>
<path d="M148.906 524.156C138.196 539.313 91.4529 559.457 79.8596 571.315C68.2458 583.201 66.0626 591.323 77.7381 597.324C89.5093 603.366 110.547 588.1 110.547 588.1C110.547 588.1 107.289 607.369 120.046 613.822C146.908 627.404 165.29 611.605 165.29 611.605C165.29 611.605 161.184 629.909 173.51 632.447C185.917 634.999 200.228 623.463 200.228 623.463C200.228 623.463 219.294 651.531 231.757 651.49C244.281 651.449 246.142 635.205 246.142 635.205C246.142 635.205 262.903 651.866 277.877 651.825C292.947 651.777 294.007 620.856 294.007 620.856C294.007 620.856 318.296 645.633 322.087 629.607C325.851 613.692 299.202 580.409 270.479 521.508C243.59 466.371 169.602 494.884 148.906 524.156Z" fill="#288453"/>
<path d="M211.444 542.474L220.197 661.077L187.087 667.153L199.256 535.666L211.444 542.474Z" fill="#665070"/>
<path d="M211.739 538.594L217.447 623.162L198.222 603.407L192.446 606.945L200.282 533.654L211.739 538.594Z" fill="#4B3355"/>
<path d="M133.693 529.247C133.693 529.247 65.7274 578.945 75.3634 583.064C85.061 587.211 122.407 564.487 122.407 564.487C122.407 564.487 121.155 597.454 141.57 600.978C162.197 604.536 178.444 581.648 178.444 581.648L197.559 578.712C197.559 578.712 218.384 620.692 226.775 620.589C240.448 620.425 234.748 598.33 234.748 598.33C234.748 598.33 257.489 625.858 273.846 625.666C290.305 625.475 285.111 596.64 285.111 596.64C285.111 596.64 303.548 619.337 316.66 618.885C329.841 618.427 295.13 562.181 266.947 509.944C241.756 463.257 184.145 490.669 133.693 529.247Z" fill="#33A86D"/>
<path d="M181.531 461.574C181.531 461.574 97.1197 520.872 99.3303 528.713C101.308 535.734 106.605 532.867 117.268 532.032C127.971 531.19 141.05 523.711 141.05 523.711C141.05 523.711 143.219 534.619 152.13 536.589C157.352 537.746 175.713 528.228 175.713 528.228C175.713 528.228 178.512 539.148 192.173 543.069C201.966 545.875 222.778 530.547 222.778 530.547C222.778 530.547 226.638 555.988 239.47 555.769C252.37 555.543 267.933 515.808 267.933 515.808L293.973 536.849C293.973 536.849 265.565 460.835 250.03 428.654C234.871 397.254 181.531 461.574 181.531 461.574Z" fill="#288453"/>
<path d="M254.403 504.299C254.403 504.299 248.414 540.599 259.672 546.785C271.019 553.018 267.707 532.429 267.707 532.429C267.707 532.429 284.193 552.149 288.293 546.675C292.385 541.208 283.557 529.753 283.557 529.753C283.557 529.753 298.401 544.602 291.201 527.064C283.988 509.493 282.086 507.659 282.086 507.659L254.403 504.299Z" fill="#288453"/>
<path d="M175.898 462.765C159.329 478.318 110.438 510.184 112.511 517.663C114.599 525.183 148.16 496.95 148.16 496.95C148.16 496.95 134.493 521.583 143.39 521.392C152.287 521.2 172.093 512.36 172.093 512.36C172.093 512.36 179.149 531.909 191.646 531.17C204.129 530.431 225.707 512.305 225.707 512.305C225.707 512.305 236.376 532.395 248.011 530.821C259.618 529.247 266.058 506.55 266.058 506.55C266.058 506.55 294.89 542.987 291.003 526.517C287.91 513.4 238.402 403.316 238.402 403.316C238.402 403.316 192.255 447.41 175.898 462.765Z" fill="#33A86D"/>
<path d="M237.882 392.936L164.51 461.807C164.51 461.807 168.732 464.557 176.808 464.503C184.911 464.441 193.397 453.691 193.397 453.691C193.397 453.691 188.648 465.898 197.586 467.151C206.558 468.41 215.414 452.254 215.414 452.254C215.414 452.254 228.622 472.652 239.702 471.701C250.823 470.743 248.106 457.304 248.106 457.304C259.433 470.415 280.573 496.711 280.231 485.277C279.889 473.911 251.336 422.913 237.882 392.936Z" fill="#F3E7D9"/>
<path d="M170.368 566.163C170.368 566.163 167.302 587.478 178.512 591.59C185.418 594.122 191.077 583.167 198.92 572.978C202.342 568.53 200.686 559.697 195.409 560.005L170.368 566.163Z" fill="#33A86D"/>
<path d="M210.705 613.698L214.887 625.475L215.147 639.392L217.549 657.231L212.375 644.866L212.026 628.458L208.269 612.932L210.705 613.698Z" fill="#4B3355"/>
<path d="M212.341 652.913L209.111 654.248L209.816 661.576L206.517 655.534L206.661 629.491L212.341 652.913Z" fill="#4B3355"/>
<path d="M202.684 600.396L207.468 605.268L203.136 641.541L200.214 629.197L202.684 600.396Z" fill="#4B3355"/>
<path d="M345.383 566.409C406.176 475.93 417.256 478.331 417.256 478.331C417.256 478.331 522.308 609.942 510.646 617.017C490.43 629.279 458.415 603.277 458.415 603.277C458.415 603.277 468.81 628.54 456.553 631.263C444.214 634 413.232 624.77 413.232 624.77C413.232 624.77 401.81 642.998 386.158 646.427C370.37 649.882 353.883 605.131 353.883 605.131C353.883 605.131 331.887 628.909 311.431 615.573C305.135 609.689 330.457 588.62 345.383 566.409Z" fill="#288453"/>
<path d="M409.4 565.533L407.887 685.628L434.893 679.62L418.139 556.501L409.4 565.533Z" fill="#665070"/>
<path d="M420.644 621.458L422.978 637.148L421.698 652.393L421.602 666.879L419.932 655.904L421.226 635.868L420.644 621.458Z" fill="#4B3355"/>
<path d="M413.184 596.879L416.921 613.781L415.34 637.606L412.377 673.14L411.829 656.704L412.801 634.671L414.464 612.857L413.184 596.879Z" fill="#4B3355"/>
<path d="M418.201 645.872L416.866 673.14L412.13 682.877L414.731 667.823L418.201 645.872Z" fill="#4B3355"/>
<path d="M408.448 581.23L408.441 607.082L419.87 609.566L427.31 623.292L419.59 572.198L408.448 581.23Z" fill="#4B3355"/>
<path d="M356.894 530.308C403.418 455.833 414.286 469.566 414.286 469.566C414.286 469.566 477.721 552.526 488.513 569.126C501.167 588.579 506.41 590.803 498.136 595.572C489.759 600.403 452.125 578.726 452.125 578.726C452.125 578.726 445.233 593.321 430.567 596.134C415.792 598.973 405.341 586.089 405.341 586.089C405.341 586.089 384.516 605.282 371.451 603.838C358.434 602.401 359.098 582.442 359.098 582.442C359.098 582.442 324.893 598.398 313.402 598.966C301.891 599.541 345.554 548.461 356.894 530.308Z" fill="#33A86D"/>
<path d="M382.921 493.221L343.111 548.646C343.111 548.646 349.428 558.13 361.096 558.602C372.778 559.081 382.873 549.405 382.873 549.405C382.873 549.405 399.633 567.203 407.839 567.155C416.045 567.107 425.222 550.452 425.222 550.452C425.222 550.452 443.351 563.994 450.393 562.81C457.415 561.633 460.296 545.717 460.296 545.717C460.296 545.717 473.005 551.308 474.826 546.203C476.626 541.16 437.774 495.096 431.299 479.933C425.516 466.371 397.368 478.899 382.921 493.221Z" fill="#288453"/>
<path d="M387.534 482.601C372.655 503.875 344.541 531.895 348.257 537.055C352.028 542.289 357.058 536.562 365.312 536.24C373.559 535.919 384.748 519.065 384.748 519.065C384.748 519.065 399.36 540.893 409.071 541.071C418.789 541.249 425.954 519.017 425.954 519.017C425.954 519.017 444.371 539.675 450.633 537.397C456.854 535.139 455.896 520.899 455.896 520.899C455.896 520.899 463.342 529.001 467.647 527.311C471.931 525.621 429.965 472.631 429.965 472.631C429.965 472.631 401.495 462.634 387.534 482.601Z" fill="#33A86D"/>
<path d="M411.569 444.639L372.053 500.768L390.901 495.205C390.901 495.205 395.719 507.802 400.092 507.802C404.472 507.802 420.226 496.868 420.226 496.868C420.226 496.868 427.659 508.021 432.99 507.44C438.308 506.858 442.12 496.772 442.12 496.772C442.12 496.772 458.456 506.201 452.721 499.071C420.966 459.59 411.569 444.639 411.569 444.639Z" fill="#F3E7D9"/>
<path d="M614.124 661.22C614.124 661.22 585.64 637.36 530.206 650.443C474.772 663.526 433.196 689.699 364.676 684.314C296.157 678.929 224.551 666.612 177.589 648.904C130.627 631.202 83.6583 634.281 63.6403 640.439C43.6223 646.598 62.8943 644.798 81.8515 648.041C100.809 651.285 129.087 663.533 139.866 668.918C139.866 668.918 107.214 661.521 107.529 665.073C107.844 668.617 210.446 719.088 272.293 721.675C349.887 724.925 417.387 712.341 492.839 685.402C550.717 664.724 598.726 657.368 614.124 661.22Z" fill="#856792"/>
</svg>
