<svg width="785" height="880" viewBox="0 0 785 880" fill="none" xmlns="http://www.w3.org/2000/svg">
<path d="M612.402 812.757C612.402 812.757 594.402 843.757 566.402 824.757C538.402 805.757 561.402 725.757 610.402 749.757C610.402 749.757 581.402 704.757 600.402 654.757C619.402 604.757 637.402 620.757 637.402 620.757C637.402 620.757 614.402 595.757 649.402 519.757C684.402 443.757 713.402 412.757 748.402 424.757C783.402 436.757 798.402 560.757 757.402 623.757C757.402 623.757 772.402 604.757 778.402 623.757C784.402 642.757 804.402 714.757 715.402 768.757C626.402 822.757 612.402 812.757 612.402 812.757Z" fill="#F3E7D9"/>
<path d="M407.402 876.757C419.892 873.147 394.402 754.757 327.402 750.757C260.402 746.757 255.402 778.757 263.402 799.757C263.402 799.757 171.402 689.757 115.402 673.757C59.4021 657.757 84.4021 687.757 84.4021 687.757C84.4021 687.757 16.4021 670.757 2.40209 692.757C-11.5979 714.757 36.4021 787.757 125.402 822.757C214.402 857.757 362.402 889.757 407.402 876.757Z" fill="#F3E7D9"/>
<path d="M524.402 642.757C524.402 642.757 497.402 549.757 508.402 514.757C508.402 514.757 481.402 514.757 503.402 457.757C525.402 400.757 535.402 393.757 550.402 401.757C565.402 409.757 572.402 447.757 551.402 484.757C551.402 484.757 557.402 461.757 579.402 468.757C601.402 475.757 555.402 616.757 540.402 638.757C525.402 660.757 524.402 642.757 524.402 642.757Z" fill="#F3E7D9"/>
<path d="M407.401 550.757C407.401 550.757 431.021 548.867 436.401 536.757L438.401 535.757C438.401 535.757 443.401 543.757 430.401 550.757C417.401 557.757 403.401 562.757 407.401 550.757Z" fill="#F3E7D9"/>
<path d="M433.401 524.757C433.401 524.757 444.401 536.757 428.401 545.757C412.401 554.757 388.401 560.757 380.401 540.757C372.401 520.757 394.401 503.757 412.401 507.757C430.401 511.757 433.401 524.757 433.401 524.757Z" fill="#992C29"/>
<path d="M279.402 598.757C278.402 601.757 264.402 618.757 278.402 629.757C292.402 640.757 345.492 587.967 320.402 579.357C295.312 570.747 280.402 595.757 279.402 598.757Z" fill="#992C29"/>
<path d="M321.401 593.757C321.401 593.757 321.401 608.757 304.401 618.757C287.401 628.757 282.401 628.757 277.401 626.757C272.401 624.757 273.401 629.757 275.401 631.757C277.401 633.757 281.401 636.757 295.401 630.757C309.401 624.757 324.401 610.757 326.401 602.757C328.401 594.757 327.401 588.757 321.401 593.757Z" fill="#F3E7D9"/>
<path d="M493.172 726.387C492.741 727.118 492.532 727.959 492.572 728.807C492.722 731.547 494.352 736.237 498.572 740.337C503.122 744.727 508.672 753.627 509.962 755.747C510.169 756.075 510.414 756.377 510.692 756.647C511.942 757.817 514.982 765.157 522.152 763.837C533.362 761.757 530.752 751.707 524.702 742.837C518.652 733.967 514.132 722.637 505.462 720.437C498.552 718.647 494.512 724.137 493.172 726.387Z" fill="#C94039"/>
<path d="M493.403 722.757C492.973 723.487 493.533 726.957 493.573 727.757C493.723 730.497 495.353 735.187 499.573 739.287C504.208 743.78 508.069 749.007 511.003 754.757C513.403 759.757 520.193 763.847 526.403 762.757C532.613 761.667 531.793 750.757 525.743 741.757C519.693 732.757 515.173 721.557 506.503 719.357C499.553 717.647 494.733 720.507 493.403 722.757Z" fill="#121721"/>
<path d="M459.402 633.757C459.402 633.757 471.402 660.757 476.402 672.757C481.402 684.757 486.402 705.757 487.402 713.757C488.402 721.757 488.402 724.757 493.402 724.757C498.402 724.757 510.402 731.757 515.402 725.757C520.402 719.757 513.402 699.757 513.402 699.757C513.402 699.757 515.402 626.757 498.402 609.757C476.812 588.167 459.402 621.757 459.402 633.757Z" fill="#273252"/>
<path d="M495.402 657.757L499.402 702.757C497.948 704.674 496.612 706.678 495.402 708.757C494.402 710.757 501.402 713.757 501.402 713.757C501.402 713.757 488.402 724.757 493.402 724.757C498.402 724.757 510.402 731.757 515.402 725.757C520.402 719.757 513.402 699.757 513.402 699.757C513.402 699.757 515.402 626.757 498.402 609.757C476.812 588.167 495.402 645.757 495.402 657.757Z" fill="#1D2538"/>
<path d="M446.043 777.257C446.043 777.257 440.943 785.777 446.903 796.847C452.863 807.917 455.413 824.097 463.903 831.767C472.393 839.437 481.783 841.137 489.453 835.177C497.123 829.217 490.303 808.767 485.193 800.257C480.083 791.747 478.513 782.777 474.193 774.907C469.873 767.037 456.263 765.337 446.043 777.257Z" fill="#121721"/>
<path d="M396.402 538.757C401.402 538.757 458.402 576.757 474.402 589.757C490.402 602.757 502.402 608.757 502.402 618.757C502.402 628.757 498.402 635.757 491.402 639.757C484.402 643.757 478.402 645.757 460.402 635.757C442.402 625.757 413.402 607.757 390.402 597.757C367.402 587.757 366.402 569.757 375.402 553.757C384.402 537.757 396.402 538.757 396.402 538.757Z" fill="#273252"/>
<path d="M474.402 589.757C490.402 602.757 502.402 608.757 502.402 618.757C502.402 628.757 499.402 636.757 492.402 640.757L485.402 629.757L490.402 619.757L447.402 570.757C447.402 570.757 458.402 576.757 474.402 589.757Z" fill="#273252"/>
<path d="M377.402 678.757C378.152 682.687 380.402 693.757 387.402 699.757C394.402 705.757 404.402 721.757 411.402 738.757C416.125 749.781 422.169 760.191 429.402 769.757C429.402 769.757 432.402 782.757 440.402 786.757C448.402 790.757 465.402 784.757 465.402 784.757C465.402 784.757 474.402 781.757 474.402 774.757C474.402 767.757 465.402 749.757 465.402 749.757C465.402 749.757 422.402 646.757 416.402 644.757C410.402 642.757 373.402 657.757 377.402 678.757Z" fill="#273252"/>
<path d="M394.402 696.757C395.152 700.687 423.402 757.757 430.402 763.757C437.402 769.757 439.402 772.757 444.402 772.757C449.402 772.757 453.402 772.757 446.402 774.757C439.402 776.757 432.402 782.757 440.402 786.757C448.402 790.757 465.402 784.757 465.402 784.757C465.402 784.757 474.402 781.757 474.402 774.757C474.402 767.757 465.402 749.757 465.402 749.757C465.402 749.757 422.402 646.757 416.402 644.757C410.402 642.757 390.402 675.757 394.402 696.757Z" fill="#1D2538"/>
<path d="M306.402 571.757C306.402 571.757 308.402 588.757 328.402 616.757C329.162 617.817 337.902 625.877 338.632 626.947C357.242 654.147 375.402 687.757 386.402 693.757C405.252 704.037 426.402 701.757 428.402 679.757C430.402 657.757 413.402 635.757 395.402 600.757C377.402 565.757 360.402 533.757 332.402 546.757C304.402 559.757 306.402 571.757 306.402 571.757Z" fill="#273252"/>
<path d="M403.402 647.757L375.402 652.757L386.402 693.757C386.402 693.757 424.402 715.757 428.402 679.757C430.842 657.757 413.402 635.757 395.402 600.757C377.402 565.757 403.402 647.757 403.402 647.757Z" fill="#1D2538"/>
<path d="M315.172 591.757C317.402 589.757 347.402 593.757 353.402 592.757C359.402 591.757 384.402 576.757 384.402 576.757L392.402 558.757C392.402 558.757 394.402 567.757 394.402 566.757C394.402 565.757 402.402 541.757 402.402 541.757C402.402 541.757 395.402 536.757 390.402 536.757C384.402 536.757 315.172 591.757 315.172 591.757Z" fill="#1D2538"/>
<path d="M264.402 461.757C260.702 458.057 201.252 369.447 192.482 356.367C192.185 355.921 191.735 355.6 191.217 355.464C190.7 355.327 190.15 355.386 189.672 355.627C189.39 355.767 189.141 355.967 188.942 356.212C188.744 356.457 188.601 356.742 188.522 357.047C188.443 357.353 188.431 357.672 188.486 357.982C188.541 358.293 188.663 358.588 188.842 358.847L262.402 465.757L264.402 461.757Z" fill="#D77D5B"/>
<path d="M194.862 359.597C194.862 359.597 150.402 352.757 136.402 342.757C122.402 332.757 118.402 335.757 125.402 355.757C132.402 375.757 144.402 406.757 144.402 406.757C144.402 406.757 189.402 409.757 206.402 409.757C223.402 409.757 227.612 407.687 227.612 407.687L194.862 359.597Z" fill="#FFACFF"/>
<path d="M157.442 378.157L186.242 382.187L188.252 384.937L158.582 381.217L157.442 378.157Z" fill="#3E4C6F"/>
<path d="M154.022 370.957L194.232 376.647L196.232 379.397L155.162 374.017L154.022 370.957Z" fill="#3E4C6F"/>
<path d="M150.603 364.757L190.813 370.457L192.813 373.197L151.743 367.827L150.603 364.757Z" fill="#3E4C6F"/>
<path d="M202.952 389.887C200.882 389.297 195.602 388.057 193.952 391.737C191.952 396.317 197.862 399.517 199.862 399.517L197.862 401.517C197.862 401.517 201.692 401.327 203.862 399.517C206.912 397.007 207.562 391.207 202.952 389.887Z" fill="#3E4C6F"/>
<path d="M128.402 377.757C129.402 378.757 144.402 406.757 144.402 406.757C144.402 406.757 164.402 396.757 162.402 388.757C160.402 380.757 128.402 377.757 128.402 377.757Z" fill="#665070"/>
<path d="M162.402 388.757C162.402 388.757 151.912 383.227 135.652 381.497C119.392 379.767 86.4023 384.757 79.4023 387.757C79.4023 387.757 50.4023 316.757 43.4023 310.757C43.4023 310.757 69.4023 303.757 95.4023 308.757C121.402 313.757 131.402 328.757 135.402 337.757C139.402 346.757 163.402 379.757 162.402 388.757Z" fill="#BB83C3"/>
<path d="M106.942 338.317C106.872 340.917 103.872 341.997 100.282 340.717C96.6924 339.437 93.9124 336.367 94.0124 333.817C94.1124 331.267 97.0124 330.207 100.582 331.417C104.152 332.627 107.012 335.757 106.942 338.317Z" fill="#F3E7D9"/>
<path d="M93.7627 361.827L96.8827 344.257L112.363 355.907L116.303 328.567L140.053 363.517L93.7627 361.827Z" fill="#F3E7D9"/>
<path d="M328.852 414.857C331.062 392.797 283.622 394.667 259.962 401.057C245.322 405.057 231.232 417.927 228.962 425.637C228.182 428.277 225.382 443.057 226.372 450.317C227.442 458.247 242.372 489.697 254.992 483.887C272.302 475.937 326.632 436.927 328.852 414.857Z" fill="#C94039"/>
<path d="M314.232 425.397C314.532 410.007 289.962 397.457 268.282 400.907C243.032 404.907 229.942 421.517 231.642 429.907C233.342 438.297 254.032 444.207 271.642 444.197C289.252 444.187 314.092 432.257 314.232 425.397Z" fill="#F3E7D9"/>
<path d="M266.313 437.837C244.953 432.147 237.023 436.137 236.883 424.937C236.693 409.937 275.823 405.617 284.883 404.387C293.943 403.157 319.203 420.947 316.493 438.757C313.783 456.567 287.673 443.527 266.313 437.837Z" fill="#273252"/>
<path d="M364.202 265.367C364.202 265.367 350.152 240.757 350.152 239.757C350.152 238.757 352.402 225.507 352.402 218.757C352.402 214.757 358.402 201.757 364.402 202.757C370.402 203.757 368.402 204.757 364.402 222.757C363.222 228.087 371.542 212.967 375.402 218.757C379.262 224.547 385.402 221.757 389.402 224.757C393.402 227.757 395.262 244.897 391.402 248.757C387.542 252.617 384.882 263.897 380.052 266.757C375.222 269.617 364.202 265.367 364.202 265.367Z" fill="#F5894E"/>
<path d="M362.402 227.757C366.091 227.078 369.705 226.039 373.192 224.657C377.402 222.757 383.402 228.757 376.402 233.757C369.402 238.757 365.402 238.757 365.402 238.757C365.402 238.757 350.402 242.757 362.402 227.757Z" fill="#F5894E"/>
<path d="M485.402 105.757C485.402 105.757 470.302 153.757 481.852 187.757C493.402 221.757 558.402 165.757 529.402 132.757C500.402 99.757 485.402 105.757 485.402 105.757Z" fill="#665070"/>
<path d="M503.402 73.757C505.402 75.757 528.402 110.757 572.402 103.757C616.402 96.757 636.402 77.757 662.402 78.757C662.402 78.757 646.402 125.757 662.402 174.757C662.402 174.757 636.402 174.757 587.402 187.757C538.402 200.757 512.402 209.757 489.402 196.757C466.402 183.757 497.402 177.757 512.402 166.757C527.402 155.757 527.932 146.447 516.662 127.607C505.392 108.767 503.402 73.757 503.402 73.757Z" fill="#856792"/>
<path d="M533.672 178.107C547.435 178.107 558.592 166.95 558.592 153.187C558.592 139.424 547.435 128.267 533.672 128.267C519.909 128.267 508.752 139.424 508.752 153.187C508.752 166.95 519.909 178.107 533.672 178.107Z" fill="#F7BC4B"/>
<path d="M544.342 149.307C546.098 149.307 547.522 147.883 547.522 146.127C547.522 144.371 546.098 142.947 544.342 142.947C542.586 142.947 541.162 144.371 541.162 146.127C541.162 147.883 542.586 149.307 544.342 149.307Z" fill="#121721"/>
<path d="M522.952 149.307C524.709 149.307 526.132 147.883 526.132 146.127C526.132 144.371 524.709 142.947 522.952 142.947C521.196 142.947 519.772 144.371 519.772 146.127C519.772 147.883 521.196 149.307 522.952 149.307Z" fill="#121721"/>
<path d="M534.213 166.207C537.725 166.207 540.573 163.122 540.573 159.317C540.573 155.512 537.725 152.427 534.213 152.427C530.7 152.427 527.853 155.512 527.853 159.317C527.853 163.122 530.7 166.207 534.213 166.207Z" fill="#121721"/>
<path d="M525.962 138.457C524.712 137.037 521.042 136.837 519.182 139.697" stroke="#121721" stroke-linecap="round" stroke-linejoin="round"/>
<path d="M541.103 138.457C542.343 137.037 546.022 136.837 547.872 139.697" stroke="#121721" stroke-linecap="round" stroke-linejoin="round"/>
<path d="M431.402 331.757L221.882 8.12697C221.458 7.47484 221.185 6.73689 221.081 5.96627C220.976 5.19565 221.044 4.41152 221.28 3.67034C221.515 2.92915 221.912 2.24935 222.441 1.67987C222.971 1.1104 223.62 0.66542 224.342 0.37697C225.483 -0.0797792 226.747 -0.122839 227.916 0.255266C229.085 0.633372 230.085 1.40879 230.742 2.44697L437.402 327.757L431.402 331.757Z" fill="#7A462F"/>
<path d="M230.402 20.757L239.402 15.757C240.914 15.4786 242.44 15.2816 243.972 15.167C253.622 14.777 264.902 15.257 271.402 18.757C284.402 25.757 278.402 35.757 315.402 45.757C352.402 55.757 362.402 55.757 375.402 48.757C388.402 41.757 400.402 17.757 452.402 31.757C504.402 45.757 513.402 61.757 513.402 61.757C513.402 61.757 506.402 112.757 522.402 138.757C522.402 138.757 513.402 120.757 475.402 122.757C437.402 124.757 422.402 133.757 390.402 143.757C368.862 150.487 340.352 151.227 325.402 150.757C318.142 150.527 315.402 155.757 315.402 155.757L230.402 20.757Z" fill="#BB83C3"/>
<path d="M481.062 122.857C481.062 122.857 513.062 122.487 522.402 138.757C531.742 155.027 513.242 167.167 506.402 170.597C499.562 174.027 483.192 179.597 481.082 188.787C481.082 188.787 473.172 177.447 481.082 122.857" fill="#665070"/>
<path d="M621.737 150.941C627.54 138.2 622.947 123.636 611.478 118.412C600.009 113.188 586.006 119.281 580.203 132.022C574.399 144.763 578.992 159.326 590.461 164.551C601.931 169.775 615.933 163.682 621.737 150.941Z" fill="#C94039"/>
<path d="M590.98 147.83C592.595 147.463 593.672 146.139 593.384 144.873C593.096 143.608 591.552 142.88 589.937 143.248C588.321 143.615 587.245 144.939 587.533 146.205C587.821 147.47 589.364 148.198 590.98 147.83Z" fill="#121721"/>
<path d="M595.552 144.797L585.972 141.377" stroke="#121721" stroke-width="2" stroke-linecap="round" stroke-linejoin="round"/>
<path d="M611.462 146.097C613.078 145.73 614.154 144.406 613.866 143.14C613.578 141.875 612.035 141.147 610.419 141.514C608.804 141.882 607.728 143.206 608.016 144.471C608.304 145.737 609.847 146.465 611.462 146.097Z" fill="#121721"/>
<path d="M605.862 143.917L615.442 138.877" stroke="#121721" stroke-width="2" stroke-linecap="round" stroke-linejoin="round"/>
<path d="M608.642 154.207C609.002 152.057 605.842 151.387 601.712 151.857C597.582 152.327 595.022 153.947 594.782 155.737C594.542 157.527 608.282 156.347 608.642 154.207Z" fill="#121721"/>
<path d="M399.672 94.577C404.832 109.097 401.042 122.867 389.032 125.907C373.702 129.757 351.232 115.397 343.162 92.757C335.092 70.117 347.742 56.857 366.222 61.847C380.692 65.757 394.502 80.067 399.672 94.577Z" fill="#F7BC4B"/>
<path d="M375.822 103.997C379.942 98.3069 387.042 103.447 387.042 103.447" stroke="#121721" stroke-width="3" stroke-linecap="round" stroke-linejoin="round"/>
<path d="M388.592 87.687C389.302 89.687 388.642 91.257 387.062 91.167C385.482 91.077 383.482 89.267 382.722 87.167C381.962 85.067 382.722 83.507 384.402 83.707C386.082 83.907 387.872 85.677 388.592 87.687Z" fill="#121721"/>
<path d="M366.082 85.6269C366.942 88.0469 365.832 89.8969 363.542 89.7669C361.252 89.6369 358.442 87.417 357.542 84.837C356.642 82.257 357.912 80.427 360.342 80.727C361.633 80.9957 362.836 81.5855 363.839 82.4419C364.842 83.2983 365.614 84.3937 366.082 85.6269Z" fill="#121721"/>
<path d="M451.722 104.917C467.125 104.917 479.612 92.4302 479.612 77.027C479.612 61.6237 467.125 49.137 451.722 49.137C436.319 49.137 423.832 61.6237 423.832 77.027C423.832 92.4302 436.319 104.917 451.722 104.917Z" fill="#F7BC4B"/>
<path d="M436.562 61.937L445.002 66.537L432.342 69.597" stroke="#121721" stroke-width="2" stroke-linecap="round" stroke-linejoin="round"/>
<path d="M466.232 61.937L457.792 66.537L470.452 69.597" stroke="#121721" stroke-width="2" stroke-linecap="round" stroke-linejoin="round"/>
<path d="M466.402 73.047C456.514 70.7509 446.214 70.9122 436.402 73.517C435.437 73.7681 434.6 74.3709 434.056 75.2072C433.512 76.0434 433.3 77.0526 433.462 78.037C434.462 85.127 441.862 94.837 452.032 94.837C462.202 94.837 468.902 85.587 469.612 77.397C469.718 76.4018 469.448 75.4029 468.853 74.5976C468.259 73.7923 467.384 73.239 466.402 73.047Z" fill="#121721"/>
<path d="M438.402 88.487C439.926 86.204 442.019 84.3577 444.474 83.1301C446.929 81.9026 449.662 81.3363 452.402 81.487C462.032 81.927 465.672 87.487 465.672 87.487C465.672 87.487 462.612 94.177 453.402 94.757C444.192 95.337 438.402 88.487 438.402 88.487Z" fill="#EE5D4F"/>
<path opacity="0.46" d="M230.402 20.757L239.402 15.757C240.914 15.4786 242.44 15.2816 243.972 15.167C253.622 14.777 264.902 15.257 271.402 18.757C284.402 25.757 278.402 35.757 315.402 45.757C352.402 55.757 362.402 55.757 375.402 48.757C388.402 41.757 314.112 149.757 314.112 149.757L230.402 20.757Z" fill="#FFACFF"/>
<path d="M367.482 218.567C367.482 218.567 363.342 231.867 368.552 234.377C373.762 236.887 374.552 228.037 374.552 228.037C374.552 228.037 373.332 233.927 374.712 237.857C376.092 241.787 378.502 240.807 380.422 236.857C382.342 232.907 380.622 235.857 380.622 235.857C380.622 235.857 378.992 243.717 383.392 243.717C387.792 243.717 392.052 227.857 389.522 224.487C386.992 221.117 387.152 221.747 383.522 222.417C383.522 222.417 380.432 218.007 375.992 219.567C375.992 219.567 374.662 214.957 367.492 218.567" fill="#F5894E"/>
<path d="M365.402 249.757C365.402 249.757 370.402 238.657 367.922 235.207C367.922 235.207 374.402 241.757 365.402 249.757Z" fill="#CC6D3D"/>
<path d="M362.402 227.757C366.091 227.078 369.705 226.039 373.192 224.657C377.402 222.757 383.402 228.757 376.402 233.757C369.402 238.757 365.402 238.757 365.402 238.757C365.402 238.757 350.402 242.757 362.402 227.757Z" fill="#CC6D3D"/>
<path d="M360.402 227.757C364.091 227.078 367.705 226.039 371.192 224.657C375.402 222.757 381.402 228.757 374.402 233.757C370.878 236.175 367.535 238.849 364.402 241.757C364.402 241.757 348.402 242.757 360.402 227.757Z" fill="#F5894E"/>
<path d="M359.402 262.197C361.122 267.387 363.822 262.557 372.672 263.277C380.032 263.867 385.672 267.007 386.962 262.657C388.472 257.387 382.902 257.867 371.332 257.817C363.902 257.757 357.642 256.997 359.402 262.197Z" fill="#F3E7D9"/>
<path d="M376.342 368.087C370.464 366.649 365.204 363.356 361.342 358.697C356.342 352.537 357.582 346.387 358.712 336.787C360.952 317.697 359.002 326.097 357.312 312.877C355.162 295.987 351.582 264.877 365.622 262.667C382.862 259.917 386.882 261.517 388.482 267.067C390.082 272.617 387.392 270.557 388.482 274.547C389.572 278.537 392.402 316.637 393.922 325.037C395.442 333.437 394.642 338.147 394.642 338.147C394.642 338.147 395.572 347.857 395.532 353.027C395.492 358.197 394.542 370.257 376.342 368.087Z" fill="#C94039"/>
<path d="M376.282 368.567C376.282 368.567 385.652 351.227 386.422 344.347C387.502 334.647 376.212 272.267 376.212 272.267C376.212 272.267 382.312 253.737 388.512 267.067C390.942 272.297 389.932 296.157 391.022 300.147C392.112 304.137 392.432 316.637 393.952 325.037C395.472 333.437 394.672 338.147 394.672 338.147C394.672 338.147 395.602 347.857 395.562 353.027C395.522 358.197 394.472 370.757 376.282 368.567Z" fill="#992C29"/>
<path d="M385.922 335.107L379.212 314.197L370.552 300.577C370.552 300.577 385.982 310.187 387.712 319.277C388.769 324.612 388.144 330.143 385.922 335.107Z" fill="#992C29"/>
<path d="M362.582 452.657C356.332 453.197 336.672 422.097 336.672 410.167C336.672 404.987 348.072 390.487 348.072 390.487L349.072 385.307C349.892 381.387 353.402 356.757 357.402 352.757C361.402 348.757 367.402 355.757 377.402 355.757C387.402 355.757 396.062 341.177 395.742 356.287C395.422 371.397 383.922 394.887 382.682 406.517C381.442 418.147 368.982 452.097 362.582 452.657Z" fill="#273252"/>
<path d="M362.582 452.657C356.332 453.197 336.672 422.097 336.672 410.167C336.672 404.987 350.252 412.167 353.672 412.437C357.092 412.707 369.242 402.947 369.242 402.947L365.812 397.407C365.812 397.407 367.402 355.757 377.402 355.757C387.402 355.757 396.062 341.177 395.742 356.287C395.422 371.397 383.922 394.887 382.682 406.517C381.442 418.147 368.982 452.097 362.582 452.657Z" fill="#1D2538"/>
<path d="M406.402 528.757C404.402 531.757 404.402 533.757 408.402 534.757C412.402 535.757 411.402 530.757 420.402 529.757C426.012 529.137 433.152 533.597 435.402 537.757C436.762 540.277 433.142 543.887 435.402 542.757C441.402 539.757 442.402 528.757 428.402 524.757C424.46 523.556 420.277 523.386 416.25 524.261C412.224 525.136 408.489 527.028 405.402 529.757" fill="#F3E7D9"/>
<path d="M272.572 432.807C272.572 432.807 288.742 419.087 320.402 412.807C330.402 410.807 346.852 422.437 358.402 448.807C369.952 475.177 398.402 531.807 398.402 531.807C398.402 531.807 376.712 561.487 351.402 578.807C332.632 591.647 310.062 594.627 302.402 589.807C284.402 578.437 246.682 449.687 272.572 432.807Z" fill="#F7BC4B"/>
<path d="M317.332 421.927C320.272 428.777 313.502 441.677 304.212 445.667C294.922 449.657 280.422 443.437 277.472 436.587C274.522 429.737 285.132 425.757 294.402 421.757C303.672 417.757 314.402 415.077 317.332 421.927Z" fill="#F5894E"/>
<path d="M356.401 546.907L343.951 486.627L317.671 418.477C329.891 416.477 354.101 430.747 365.671 457.117C377.241 483.487 398.991 531.757 398.991 531.757L391.991 546.757L347.401 588.757L304.401 591.757L318.071 588.877C318.071 588.877 344.011 581.877 347.871 577.007C355.741 567.007 368.271 534.867 368.271 534.867L356.401 546.907Z" fill="#CE9436"/>
<path d="M318.762 418.237C320.602 411.587 328.402 407.757 334.402 407.757C340.402 407.757 331.402 407.757 351.402 428.757C356.632 434.247 363.482 439.047 366.912 444.757C392.462 487.547 422.072 497.757 428.402 504.757C435.582 512.757 443.822 530.537 438.402 542.757C435.922 548.337 446.402 527.757 424.402 523.757C415.552 522.147 405.402 529.757 405.402 529.757C395.402 525.757 371.202 503.107 362.242 482.457C357.632 471.837 346.402 450.147 336.402 436.757C326.922 424.117 318.402 419.477 318.762 418.237Z" fill="#C94039"/>
<path d="M318.762 418.237C320.602 411.587 328.402 407.757 334.402 407.757C340.402 407.757 331.402 407.757 351.402 428.757C356.632 434.247 363.482 439.047 366.912 444.757C392.462 487.547 422.072 497.757 428.402 504.757C435.582 512.757 443.822 530.537 438.402 542.757C435.922 548.337 446.402 527.757 424.402 523.757L414.602 504.217C404.602 500.217 381.372 481.277 381.372 481.277C381.372 481.277 346.402 450.147 336.402 436.757C326.922 424.117 318.402 419.477 318.762 418.237Z" fill="#992C29"/>
<path d="M305.902 416.257C322.232 421.707 330.062 471.837 322.902 474.167C315.742 476.497 270.782 435.447 279.902 425.257" stroke="#992C29" stroke-miterlimit="10"/>
<path d="M325.847 483.313C327.257 482.881 327.729 480.343 326.901 477.645C326.074 474.947 324.26 473.11 322.851 473.543C321.441 473.975 320.969 476.513 321.796 479.211C322.624 481.909 324.437 483.746 325.847 483.313Z" fill="#29ABE2"/>
<path d="M313.842 412.047C319.782 409.547 322.492 410.527 326.702 411.717C330.912 412.907 334.242 416.987 341.442 427.817C348.642 438.647 359.852 471.247 356.442 472.757C353.032 474.267 341.732 445.897 334.442 436.757C327.152 427.617 307.902 414.547 313.842 412.047Z" fill="#F3E7D9"/>
<path d="M299.402 602.757C306.622 600.347 310.402 592.757 303.402 593.757C296.402 594.757 294.402 599.757 287.402 604.757C280.402 609.757 271.732 618.417 276.402 627.757C278.402 631.757 279.402 631.757 282.402 625.757C285.402 619.757 287.402 606.757 299.402 602.757Z" fill="#F3E7D9"/>
<path d="M272.292 436.867C279.472 439.477 295.292 470.417 300.962 487.867C306.632 505.317 303.212 533.047 306.692 544.087C310.172 555.127 311.582 590.827 309.342 593.917C308.452 595.147 291.762 600.057 285.402 606.727C279.57 613.047 276.046 621.152 275.402 629.727C275.402 629.727 240.612 600.517 258.402 542.727C257.402 519.727 233.752 470.487 235.402 462.727C237.052 454.967 265.112 434.247 272.292 436.867Z" fill="#992C29"/>
<path d="M280.842 449.297C288.032 451.907 295.302 470.417 300.962 487.897C306.622 505.377 303.212 533.077 306.692 544.117C310.172 555.157 311.582 590.857 309.342 593.947C307.702 596.217 302.402 553.757 302.402 553.757C302.402 553.757 292.042 551.567 290.962 543.397C290.442 539.397 292.692 488.077 292.692 488.077C292.692 488.077 273.662 446.677 280.842 449.297Z" fill="#C94039"/>
<path d="M304.702 499.087C306.932 494.697 303.942 487.577 299.192 476.717C294.442 465.857 287.402 448.027 278.782 438.477C269.732 428.477 249.562 439.397 258.682 443.477C268.102 447.687 278.572 455.387 288.392 471.797C299.312 490.047 302.482 503.467 304.702 499.087Z" fill="#F3E7D9"/>
<path d="M287.171 567.307L291.072 568.307C291.072 568.307 288.381 583.507 276.231 587.177L275.021 584.407C275.021 584.407 283.991 580.977 287.171 567.307Z" fill="#F3E7D9"/>
<path d="M294.952 493.117C294.952 493.117 304.132 518.417 288.172 528.067C291.901 516.75 294.179 505.007 294.952 493.117Z" fill="#C94039"/>
<path d="M395.401 506.757L396.401 510.547C396.401 510.547 401.401 513.757 418.401 511.757L417.401 507.757C417.401 507.757 404.401 512.757 395.401 506.757Z" fill="#F3E7D9"/>
<path d="M501.202 318.887C519.99 318.887 535.222 303.656 535.222 284.867C535.222 266.078 519.99 250.847 501.202 250.847C482.413 250.847 467.182 266.078 467.182 284.867C467.182 303.656 482.413 318.887 501.202 318.887Z" fill="#29ABE2"/>
<path d="M478.722 287.397L497.812 268.367L524.822 276.667" stroke="#F3E7D9" stroke-width="5" stroke-linecap="round" stroke-linejoin="round"/>
<path d="M516.612 277.417C516.554 276.378 516.172 275.383 515.522 274.571C514.871 273.759 513.983 273.17 512.982 272.887L501.162 269.337C500.172 269.045 499.12 269.028 498.121 269.289C497.122 269.55 496.213 270.078 495.492 270.817L487.492 279.027C486.756 279.768 486.27 280.721 486.103 281.753C485.936 282.784 486.097 283.841 486.562 284.777L495.402 301.887C495.978 302.936 496.889 303.761 497.989 304.233C499.089 304.704 500.315 304.793 501.472 304.487L513.232 301.597C514.429 301.328 515.497 300.656 516.256 299.692C517.016 298.729 517.42 297.533 517.402 296.307L516.612 277.417ZM503.962 290.967C502.888 291.164 501.78 291.043 500.774 290.618C499.768 290.193 498.909 289.482 498.302 288.574C497.696 287.666 497.368 286.6 497.361 285.508C497.353 284.416 497.666 283.345 498.26 282.429C498.854 281.513 499.703 280.79 500.703 280.351C501.703 279.912 502.809 279.775 503.886 279.958C504.963 280.141 505.962 280.635 506.761 281.379C507.56 282.124 508.124 283.086 508.382 284.147C508.699 285.637 508.412 287.193 507.583 288.472C506.755 289.75 505.452 290.648 503.962 290.967Z" fill="#F3E7D9"/>
<path opacity="0.5" d="M530.401 275.047C530.401 287.507 474.531 287.507 474.531 275.047C474.531 262.587 487.031 252.487 502.461 252.487C517.891 252.487 530.401 262.587 530.401 275.047Z" fill="#FFFCF3"/>
<path d="M456.212 359.717L469.402 385.827" stroke="#F7BC4B" stroke-width="3" stroke-linecap="round" stroke-linejoin="round"/>
<path d="M446.371 389.097L471.031 370.967" stroke="#F7BC4B" stroke-width="3" stroke-linecap="round" stroke-linejoin="round"/>
<path d="M442.182 380.937L466.842 362.817" stroke="#F7BC4B" stroke-width="3" stroke-linecap="round" stroke-linejoin="round"/>
<path d="M445.752 367.607L458.942 393.717" stroke="#F7BC4B" stroke-width="3" stroke-linecap="round" stroke-linejoin="round"/>
<path d="M275.612 177.717L209.152 215.167L261.372 238.377L275.612 177.717Z" fill="#33A86D"/>
<path opacity="0.5" d="M275.612 177.717L250.032 193.277L261.372 238.377L275.612 177.717Z" fill="#FFFCF3"/>
<path d="M275.612 177.717L272.072 181.727L232.622 225.447L235.522 226.507L275.612 177.717Z" fill="#288453"/>
<path d="M178.142 122.657C178.972 124.387 185.322 138.087 181.572 146.477C181.488 146.661 181.465 146.866 181.507 147.064C181.549 147.261 181.653 147.44 181.805 147.573C181.956 147.707 182.147 147.788 182.348 147.805C182.549 147.822 182.75 147.773 182.922 147.667C190.192 143.127 205.782 131.097 205.312 111.567C204.712 86.337 177.882 113.567 178.052 122.267C178.052 122.402 178.082 122.535 178.142 122.657Z" fill="#F7BC4B"/>
<path d="M182.102 77.647H160.682C147.863 77.647 137.472 88.0385 137.472 100.857V110.767C137.472 123.585 147.863 133.977 160.682 133.977H182.102C194.92 133.977 205.312 123.585 205.312 110.767V100.857C205.312 88.0385 194.92 77.647 182.102 77.647Z" fill="#F7BC4B"/>
<path opacity="0.5" d="M156.052 94.537C154.984 93.8907 154.117 92.9608 153.547 91.8509C152.977 90.7411 152.726 89.4947 152.823 88.2507C152.919 87.0067 153.359 85.8139 154.093 84.805C154.828 83.7962 155.828 83.0111 156.982 82.537C167.122 78.477 183.632 81.777 187.522 82.237C199.162 83.637 201.652 97.237 201.352 110.587C201.325 111.734 200.997 112.853 200.401 113.834C199.805 114.814 198.962 115.62 197.956 116.171C196.95 116.722 195.816 116.999 194.669 116.974C193.523 116.948 192.403 116.622 191.422 116.027L156.052 94.537Z" fill="#FFFCF3"/>
<path d="M69.1725 257.887C89.966 257.887 106.822 241.03 106.822 220.237C106.822 199.443 89.966 182.587 69.1725 182.587C48.379 182.587 31.5225 199.443 31.5225 220.237C31.5225 241.03 48.379 257.887 69.1725 257.887Z" fill="#29ABE2"/>
<path d="M60.4826 245.997C57.2226 247.877 53.8226 247.087 51.4826 243.067L46.9526 234.487C44.6326 230.487 44.8126 226.417 48.0726 224.487C51.3326 222.607 54.5426 223.047 56.8626 227.067L61.3926 235.647C63.7326 239.757 63.7426 244.117 60.4826 245.997Z" fill="#F3E7D9"/>
<path d="M58.3329 225.807C57.0729 223.697 57.8929 221.397 58.4229 218.987C59.0929 215.937 60.3129 208.987 59.8229 207.787C59.0029 205.727 54.8229 197.787 55.7229 195.587C56.6229 193.387 62.1929 192.907 64.5529 195.287C67.4229 198.187 67.4229 199.587 68.4629 203.707C69.3329 207.197 69.0029 207.897 72.4629 206.787C76.4629 205.497 82.1229 204.947 83.8629 204.187C84.4449 203.945 85.0707 203.825 85.701 203.837C86.3313 203.848 86.9524 203.99 87.5253 204.253C88.0982 204.516 88.6105 204.894 89.03 205.365C89.4495 205.835 89.7671 206.388 89.9629 206.987C90.1752 207.471 90.2591 208.001 90.2065 208.526C90.154 209.052 89.9667 209.555 89.6629 209.987C90.2957 210.345 90.8455 210.834 91.2764 211.42C91.7072 212.006 92.0093 212.676 92.1629 213.387C92.5007 214.967 92.3255 216.613 91.6629 218.087C91.6629 218.087 95.1629 219.587 93.9629 224.587C93.9629 224.587 96.2729 229.157 93.2629 231.787C90.9729 233.787 86.8429 235.457 81.8629 237.587C73.4629 241.187 67.6129 241.337 65.9629 239.687C64.3129 238.037 58.3329 225.807 58.3329 225.807Z" fill="#F3E7D9"/>
<path opacity="0.5" d="M96.8226 215.357C96.8226 231.357 38.2227 231.357 38.2227 215.357C38.2227 207.586 41.3096 200.133 46.8044 194.639C52.2992 189.144 59.7518 186.057 67.5226 186.057C75.2935 186.057 82.7461 189.144 88.2409 194.639C93.7357 200.133 96.8226 207.586 96.8226 215.357Z" fill="#FFFCF3"/>
<path d="M219.202 290.367C219.668 291.968 219.81 293.646 219.619 295.302C219.428 296.959 218.909 298.561 218.092 300.014C217.275 301.468 216.176 302.744 214.86 303.768C213.544 304.791 212.037 305.542 210.427 305.976C208.817 306.411 207.137 306.519 205.484 306.296C203.832 306.073 202.24 305.523 200.803 304.678C199.366 303.832 198.112 302.709 197.114 301.373C196.116 300.037 195.395 298.515 194.992 296.897" stroke="#F7BC4B" stroke-width="3" stroke-miterlimit="10"/>
<path d="M194.972 256.837C194.972 256.837 205.612 249.957 213.802 265.347C216.282 270.007 218.002 273.347 221.182 279.067C222.622 281.637 228.662 287.427 228.662 287.427L204.952 293.827" stroke="#F7BC4B" stroke-width="3" stroke-miterlimit="10"/>
<path d="M199.342 255.657C199.342 255.657 186.682 255.067 187.342 272.487C187.542 277.757 187.742 281.487 187.862 288.047C187.912 290.997 185.592 299.047 185.592 299.047L209.312 292.657" stroke="#F7BC4B" stroke-width="3" stroke-miterlimit="10"/>
<path d="M71.9218 486.547C83.2118 502.967 104.572 507.307 120.262 497.747C135.642 488.377 141.822 467.877 133.712 450.427C124.792 431.267 102.042 422.537 83.3518 432.927C64.2218 443.557 59.4618 468.457 71.9218 486.547Z" fill="#EE5D4F"/>
<path opacity="0.5" d="M98.9122 455.167C98.9122 455.167 135.322 467.287 128.242 452.067C120.452 435.347 100.612 427.757 84.3122 436.757C67.6222 446.067 98.9122 455.167 98.9122 455.167Z" fill="#FFFCF3"/>
<path d="M79.3415 466.807C79.2215 452.907 95.1815 457.657 97.2215 458.327C97.6815 456.227 101.601 440.267 113.221 447.327C130.221 457.777 114.891 482.837 113.071 485.677L113.141 485.807H112.981C112.955 485.856 112.925 485.903 112.891 485.947L112.821 485.817C109.461 486.117 79.5315 487.647 79.3415 466.807Z" fill="#FFFCF3"/>
<path d="M293.942 502.537L343.892 482.097C346.063 481.211 348.492 481.198 350.673 482.06C352.853 482.923 354.615 484.595 355.592 486.727L375.112 529.397C375.615 530.493 375.895 531.678 375.935 532.884C375.974 534.089 375.773 535.29 375.343 536.417C374.913 537.544 374.262 538.573 373.429 539.446C372.596 540.318 371.598 541.015 370.492 541.497L316.942 564.877C315.797 565.38 314.56 565.64 313.309 565.642C312.058 565.643 310.82 565.386 309.674 564.887C308.527 564.387 307.496 563.656 306.646 562.739C305.795 561.821 305.144 560.738 304.732 559.557L288.802 513.937C288.037 511.74 288.144 509.333 289.1 507.213C290.056 505.092 291.789 503.419 293.942 502.537Z" fill="#F3E7D9"/>
<path d="M332.712 541.937C343.057 541.937 351.442 533.551 351.442 523.207C351.442 512.863 343.057 504.477 332.712 504.477C322.368 504.477 313.982 512.863 313.982 523.207C313.982 533.551 322.368 541.937 332.712 541.937Z" fill="#29ABE2"/>
<path d="M324.982 515.267L333.152 534.777L341.902 518.977L324.982 515.267Z" fill="#C94039"/>
<g opacity="0.5">
<path opacity="0.5" d="M308.712 499.547L344.712 484.817C346.277 484.179 348.028 484.17 349.599 484.792C351.17 485.415 352.439 486.62 353.142 488.157L367.212 518.897C368.722 522.227 305.482 500.867 308.712 499.547Z" fill="#FFFCF3"/>
</g>
<path d="M272.922 403.967L285.862 437.967C285.862 437.967 290.492 443.967 300.702 440.487C310.912 437.007 310.612 428.207 310.612 428.207L296.492 390.057L272.922 403.967Z" fill="#F5894E"/>
<path d="M272.922 403.967C272.922 403.967 289.822 423.967 295.802 426.967C301.782 429.967 309.402 426.757 309.402 426.757L297.742 389.757L272.922 403.967Z" fill="#CC6D3D"/>
<path d="M253.502 398.527C269.902 415.527 279.102 417.027 279.102 417.027C312.192 408.097 317.322 378.517 308.102 359.027C299.302 338.517 295.152 333.517 272.152 341.627C240.092 352.907 238.892 383.397 253.502 398.527Z" fill="#1D2538"/>
<path d="M253.502 398.527C269.902 415.517 277.402 409.757 277.402 409.757C310.502 400.837 317.322 378.517 308.082 359.017C299.282 338.507 297.082 329.877 269.862 337.817C232.032 348.847 238.892 383.397 253.502 398.527Z" fill="#3E4C6F"/>
<path d="M251.452 399.567C265.452 414.057 284.662 392.247 284.662 392.247C288.392 387.407 283.602 369.247 280.272 357.297C277.402 346.997 279.512 335.447 253.172 348.707C229.762 360.497 239.002 386.667 251.452 399.567Z" fill="#1D2538"/>
<path d="M272.912 344.107C272.912 344.107 293.412 346.527 297.502 348.617C301.592 350.707 316.962 384.127 315.652 397.037C314.352 409.777 278.782 421.617 267.942 416.817C259.062 412.897 258.202 405.927 252.812 395.897C247.132 385.327 252.022 375.187 251.222 370.557C249.832 362.637 272.912 344.107 272.912 344.107Z" fill="#CC6D3D"/>
<path d="M244.942 397.847C248.742 403.587 255.032 407.317 257.492 406.037C259.952 404.757 258.902 399.037 255.092 393.237C251.282 387.437 246.162 383.787 243.702 385.127C241.242 386.467 241.142 392.097 244.942 397.847Z" fill="#CC6D3D"/>
<path d="M296.942 354.647C303.862 356.147 319.442 392.417 311.762 401.217C304.082 410.017 294.862 411.737 285.912 408.347C278.072 405.347 271.962 378.457 277.912 369.657C285.112 358.887 290.012 353.157 296.942 354.647Z" fill="#F5894E"/>
<path d="M247.292 364.147C247.292 364.147 255.242 379.827 255.172 385.407L253.612 394.207L243.272 371.597L247.292 364.147Z" fill="#1D2538"/>
<path d="M294.462 335.517C294.462 335.517 290.612 344.107 270.642 350.807C260.732 354.127 253.462 360.537 248.322 361.137C235.682 362.597 248.372 333.727 268.512 326.217C288.872 318.637 294.462 335.517 294.462 335.517Z" fill="#1D2538"/>
<path d="M268.542 325.927C252.612 332.627 240.452 353.297 250.632 352.117C253.522 351.777 258.082 351.117 263.512 349.977C272.262 345.557 280.312 337.707 280.312 337.707C281.142 342.357 276.592 345.807 271.232 348.207C276.31 346.932 281.317 345.39 286.232 343.587C294.592 340.487 295.632 340.637 295.302 337.637C294.652 331.527 285.752 318.697 268.542 325.927Z" fill="#3E4C6F"/>
<path d="M269.222 371.757C269.962 374.167 271.422 374.877 272.632 374.507C273.842 374.137 274.332 372.827 273.632 370.407C272.932 367.987 271.312 366.337 270.102 366.707C268.892 367.077 268.482 369.317 269.222 371.757Z" fill="#34283A"/>
<path d="M289.512 365.757C290.252 368.167 291.712 368.877 292.922 368.507C294.132 368.137 294.622 366.827 293.922 364.417C293.222 362.007 291.602 360.347 290.402 360.717C289.202 361.087 288.772 363.347 289.512 365.757Z" fill="#34283A"/>
<path d="M263.402 365.847C263.534 365.798 263.649 365.715 263.737 365.606C263.825 365.496 263.882 365.366 263.902 365.227C263.902 365.047 264.622 360.817 268.122 360.587C268.225 360.581 268.325 360.554 268.417 360.509C268.51 360.464 268.592 360.401 268.66 360.324C268.728 360.246 268.78 360.157 268.813 360.059C268.846 359.962 268.859 359.859 268.852 359.757C268.839 359.549 268.745 359.355 268.59 359.216C268.434 359.078 268.23 359.006 268.022 359.017C264.212 359.267 262.642 363.017 262.352 365.017C262.324 365.222 262.377 365.431 262.5 365.597C262.624 365.764 262.808 365.875 263.012 365.907C263.145 365.917 263.279 365.897 263.402 365.847Z" fill="#34283A"/>
<path d="M296.402 355.437C296.474 355.412 296.542 355.375 296.602 355.327C296.766 355.202 296.873 355.017 296.902 354.813C296.93 354.609 296.876 354.402 296.752 354.237C294.582 351.337 290.752 352.047 289.092 352.827C288.913 352.914 288.774 353.066 288.703 353.252C288.633 353.437 288.636 353.643 288.712 353.827C288.799 354.006 288.95 354.146 289.135 354.218C289.321 354.29 289.526 354.29 289.712 354.217C289.872 354.137 293.522 352.537 295.472 355.137C295.569 355.285 295.715 355.396 295.884 355.451C296.053 355.505 296.236 355.5 296.402 355.437Z" fill="#34283A"/>
<path d="M185.032 531.287C185.032 531.287 221.642 475.617 228.512 466.727C235.512 457.657 244.692 449.657 256.142 454.987C267.592 460.317 277.212 476.657 267.872 488.987C258.532 501.317 237.622 532.607 230.522 538.447C223.422 544.287 210.752 556.757 210.592 551.127C210.432 545.497 185.032 531.287 185.032 531.287Z" fill="#1D2538"/>
<path d="M185.032 531.287C183.342 529.077 195.522 515.107 207.402 498.757C216.612 486.077 225.512 470.607 228.512 466.757C235.512 457.687 252.082 447.297 251.402 459.897C250.332 479.567 215.402 488.897 221.872 517.787C226.462 538.277 188.042 535.207 185.032 531.287Z" fill="#273252"/>
<path d="M240.972 479.287C240.972 479.287 225.782 484.557 218.132 499.287C210.482 514.017 240.972 479.287 240.972 479.287Z" fill="#273252"/>
<path d="M269.403 532.757C269.403 532.757 255.403 530.757 233.403 527.757C211.403 524.757 202.403 509.757 191.403 518.757C180.403 527.757 177.403 547.757 186.403 555.757C195.403 563.757 229.403 566.757 246.403 569.757C263.403 572.757 269.403 580.757 273.403 567.757C277.403 554.757 275.403 537.757 269.403 532.757Z" fill="#C94039"/>
<path d="M269.403 532.757C269.403 532.757 255.403 530.757 233.403 527.757C211.403 524.757 257.943 544.567 257.943 544.567C257.943 544.567 269.403 580.757 273.403 567.757C277.403 554.757 275.403 537.757 269.403 532.757Z" fill="#992C29"/>
<path d="M276.723 537.997C276.723 537.997 268.933 535.627 266.343 545.877C263.753 556.127 266.823 568.097 272.203 569.607C277.583 571.117 276.723 564.807 276.723 564.807C276.723 564.807 273.263 563.227 273.263 556.127C273.263 549.027 279.323 541.937 279.323 541.937L276.723 537.997Z" fill="#F3E7D9"/>
<path d="M272.582 560.197C269.582 554.947 271.012 549.967 272.492 543.277C274.342 534.947 278.182 526.747 280.402 521.757C284.402 512.757 291.962 513.317 296.512 512.127C304.132 510.127 307.092 510.547 307.092 510.547C307.092 510.547 313.032 512.727 311.942 514.707C310.852 516.687 302.082 516.407 302.252 516.707C302.422 517.007 304.022 516.327 305.912 517.407C306.565 517.847 307.096 518.444 307.458 519.143C307.819 519.842 308 520.62 307.982 521.407C308.048 522.232 307.845 523.057 307.402 523.757C307.979 523.636 308.579 523.731 309.09 524.024C309.601 524.317 309.986 524.788 310.172 525.347C310.651 526.681 310.917 528.081 310.962 529.497C310.759 530.769 310.285 531.983 309.572 533.057C309.572 533.057 310.962 532.057 311.952 534.637C312.942 537.217 311.502 540.507 311.412 541.097C310.412 548.097 293.412 551.717 293.412 551.717C292.859 553.955 291.849 556.054 290.444 557.881C289.04 559.709 287.272 561.226 285.252 562.337C278.252 566.337 277.862 566.117 276.412 564.717C275.051 563.284 273.772 561.775 272.582 560.197Z" fill="#F5894E"/>
</svg>
